<?xml version="1.0" encoding="utf-8"?>
<!-- Generator: Adobe Illustrator 22.0.1, SVG Export Plug-In . SVG Version: 6.00 Build 0)  -->
<svg version="1.1" id="Capa_1" xmlns="http://www.w3.org/2000/svg" xmlns:xlink="http://www.w3.org/1999/xlink" x="0px" y="0px"
	 viewBox="0 0 1200 316" style="enable-background:new 0 0 1200 316;" xml:space="preserve">
<style type="text/css">
	.st0{clip-path:url(#SVGID_2_);}
	.st1{fill:#F57C00;}
	.st2{clip-path:url(#SVGID_4_);}
	.st3{fill:#00B0B0;}
</style>
<g>
	<g>
		<defs>
			<rect id="SVGID_1_" width="1200" height="316"/>
		</defs>
		<clipPath id="SVGID_2_">
			<use xlink:href="#SVGID_1_"  style="overflow:visible;"/>
		</clipPath>
		<g class="st0">
			<path class="st1" d="M189.1,186.7c0,6.5-1.7,10.9-5,13.3c-2.4,1.7-6.4,2.5-11.9,2.5c-2.1,0-4.7-1.1-7.8-3.3
				c-0.9-0.7-2.3-1.8-3.9-3.3L40.7,94.2v98.5c0,6.1-3,9.1-9.1,9.1H24c-6,0-9-3-9-9.1V75.4v-5c0-1.8,0.6-3.3,1.8-4.7s2.8-2.7,4.8-3.8
				c1-0.6,2-1,3.2-1.3c1.2-0.3,2.3-0.4,3.4-0.4c3.5,0,7.4,1.3,11.7,3.7c1.4,0.8,3.2,2.1,5.4,3.7L163.4,168V70.1c0-6,3-9,9.1-9h7.5
				c6.1,0,9.1,3,9.1,9L189.1,186.7L189.1,186.7z"/>
			<path class="st1" d="M371.6,148.3c0,2.6-0.6,5-1.8,7c-1.2,2-2.9,3.1-5,3.1H243.8c0,15.2,10.5,22.8,31.6,22.8h18.2c6,0,9,3,9,9.1
				v2.2c0,6.1-3,9.1-9,9.1H278c-11,0-20.4-0.9-28-2.7s-13.6-4.3-17.8-7.5c-9-7.1-13.5-15.3-13.5-24.7v-40.6
				c0-10.8,5.2-19.3,15.7-25.6c10.4-6.3,24.7-9.4,42.7-9.4h45.5c13.7,0,25,2.5,34.1,7.6c10,5.6,15,13.3,15,23.1L371.6,148.3
				L371.6,148.3z M348,137.4v-13.6c0-3.1-3.3-5.9-9.8-8.4s-14.2-3.7-23.1-3.7h-35.3c-10.6,0-19.1,1-25.6,3
				c-7.5,2.3-11.2,5.6-11.2,10v12.7H348z"/>
			<path class="st1" d="M400.4,112.4c-6.1,0-9.1-3-9.1-9.1V101c0-6,3-9,9.1-9h8.5V70.2c0-6,3-9,9-9h6.4c6,0,9,3,9,9V92h38.6
				c6.1,0,9.1,3,9.1,9v2.3c0,6.1-3,9.1-9.1,9.1h-38.6v80.2c0,6.1-3,9.1-9,9.1h-6.4c-6,0-9-3-9-9.1v-80.2L400.4,112.4L400.4,112.4z"
				/>
			<path class="st1" d="M503.9,112.4c-6.1,0-9.1-3-9.1-9.1V101c0-6,3-9,9.1-9h8.5V70.2c0-6,3-9,9-9h6.4c6,0,9,3,9,9V92h38.6
				c6.1,0,9.1,3,9.1,9v2.3c0,6.1-3,9.1-9.1,9.1h-38.6v80.2c0,6.1-3,9.1-9,9.1h-6.4c-6,0-9-3-9-9.1v-80.2L503.9,112.4L503.9,112.4z"
				/>
			<path class="st1" d="M765.5,166.9c0,7.7-1.3,13.8-4,18.1c-3.3,5.5-9.1,9.5-17.5,12.2c-9.5,3-22.8,4.5-40,4.5h-88.7
				c-6,0-9-3-9-9.1v-2.9c0-6.1,3-9.1,9-9.1H704c13.4,0,23-1.4,28.8-4.2c4.7-2.2,7-5.2,7-9.1v-12.1c0-5-3-8.6-8.9-10.8
				s-14.8-3.3-26.7-3.3h-33.9c-22.1,0-38.5-3-49.2-8.9c-10.2-5.6-15.2-13.8-15.2-24.6V97.1c0-11.8,4.2-20.5,12.5-26.1
				c9.7-6.5,26.2-9.8,49.5-9.8h13c6.1,0,9.1,3,9.1,9v2.9c0,6.1-3,9.2-9.1,9.2h-13.4c-11.3,0-19.8,1.1-25.8,3.2
				c-6.8,2.4-10.2,6.2-10.2,11.4v9.7c0,4.9,3,8.3,8.9,10.1s15.8,2.8,29.4,2.8h34.3c19.3,0,34.3,3.1,45.1,9.4
				c10.8,6.3,16.1,14.7,16.1,25.3L765.5,166.9L765.5,166.9z"/>
			<path class="st1" d="M822.5,85.2c0,3.7-1.5,6.8-4.7,9.1s-6.7,3.5-10.9,3.5c-4.2,0-7.9-1.1-11-3.3c-3.4-2.4-5.2-5.5-5.2-9.3
				s1.6-6.8,4.9-9.1s7-3.4,11.2-3.4c4.2,0,7.8,1.1,10.9,3.4C821,78.3,822.5,81.4,822.5,85.2z M819.2,192.5c0,6.1-3,9.1-9.1,9.1h-6
				c-6.1,0-9.1-3-9.1-9.1v-83.6c0-6,3-9,9.1-9h6c6.1,0,9.1,3,9.1,9V192.5z"/>
			<path class="st1" d="M1005.8,167.6c0,8.8-4.8,16.5-14.5,22.9c-11,7.4-26.1,11.1-45.1,11.1h-37.2c-21.1,0-36.6-3.3-46.4-9.8
				c-7.9-5.3-11.8-12.4-11.8-21.5l0.3-44c0-10.6,4.4-18.8,13.3-24.7c9.8-6.5,24.6-9.8,44.3-9.8h72.7V70.4c0-6.1,3-9.1,9-9.1h6.3
				c6.1,0,9.1,3,9.1,9.1V167.6z M981.5,167.2v-54.7h-73.3c-11.5,0-19.9,1.2-25,3.4c-5.1,2.3-7.7,5.9-7.7,10.9V166
				c0,6.1,2.5,10.1,7.3,12.1c4.9,2,13.5,3.1,25.9,3.1h35.1c12.3,0,21.7-1.2,28.1-3.7S981.5,171.6,981.5,167.2z"/>
			<path class="st1" d="M1186.4,148.3c0,2.6-0.6,5-1.8,7c-1.2,2-2.8,3.1-5,3.1h-121.1c0,15.2,10.5,22.8,31.6,22.8h18.2
				c6,0,9,3,9,9.1v2.2c0,6.1-3,9.1-9,9.1h-15.6c-11,0-20.4-0.9-28-2.7s-13.6-4.3-17.8-7.5c-9-7.1-13.5-15.3-13.5-24.7v-40.6
				c0-10.8,5.2-19.3,15.7-25.6c10.4-6.3,24.7-9.4,42.7-9.4h45.5c13.7,0,25,2.5,34.1,7.6c10,5.6,15,13.3,15,23.1L1186.4,148.3
				L1186.4,148.3z M1162.7,137.4v-13.6c0-3.1-3.3-5.9-9.8-8.4s-14.2-3.7-23.1-3.7h-35.3c-10.6,0-19.1,1-25.6,3
				c-7.5,2.3-11.2,5.6-11.2,10v12.7H1162.7z"/>
		</g>
	</g>
	<g>
		<defs>
			<rect id="SVGID_3_" width="1200" height="316"/>
		</defs>
		<clipPath id="SVGID_4_">
			<use xlink:href="#SVGID_3_"  style="overflow:visible;"/>
		</clipPath>
		<g class="st2">
			<path class="st3" d="M5.9,257.8l1.3-6.2l40.9-16.9l-1.6,7.1l-33.9,13.3l28,13.2l-1.3,6.3L5.9,257.8z"/>
			<path class="st3" d="M97.3,217l-47.9,83h-7.1l47.9-83L97.3,217L97.3,217z"/>
			<path class="st3" d="M135.2,251.6l-1.3,6.2l-40.9,16.9l1.6-7.1l33.9-13.3l-28-13.2l1.3-6.3L135.2,251.6z"/>
			<path class="st3" d="M199.5,219.9h14.1l-0.5,2.2c-1.1,0.2-1.9,0.5-2.4,0.8s-0.9,0.7-1.3,1.3c-0.4,0.6-0.8,1.5-1.2,2.8
				c-0.4,1.3-0.9,3.3-1.5,6.2l-7.6,34.6c-0.4,1.8-0.6,3.1-0.8,4.2s-0.2,2-0.2,2.8c0,1.3,0.3,2.3,1,2.8s1.8,0.9,3.4,1l-0.5,2.2H184
				l0.5-2.2c1.1-0.2,2-0.5,2.5-0.9s1-1,1.4-1.7c0.4-0.7,0.7-1.6,1.1-2.6s0.8-3,1.5-6l5.9-26.9c0.8-3.5,1.8-7.3,2.9-11.4h-0.6
				c-0.9,1.6-1.7,3.1-2.6,4.6s-2.1,3.6-3.8,6.4l-20.3,33.5h-4.9l-4.3-33.4l-1.2-12h-0.9c-1.1,7.5-2.3,13.8-3.4,18.9l-4.3,19.4
				c-0.5,2.3-0.8,3.9-1,5s-0.2,2.1-0.2,3.1c0,1.3,0.3,2.3,1,2.8s1.8,0.9,3.4,1l-0.5,2.2h-15.6l0.5-2.2c1.1-0.2,2-0.5,2.5-0.9
				s1-1,1.4-1.7c0.4-0.7,0.7-1.6,1.1-2.6s0.8-3,1.5-6l7.6-34.3c0.3-1.3,0.5-2.5,0.7-3.7c0.2-1.2,0.3-2.3,0.3-3.5
				c0-1.4-0.4-2.4-1.1-2.9s-1.8-0.9-3.3-1l0.5-2.2h15.9l5.1,43.3L199.5,219.9z"/>
			<path class="st3" d="M218.2,238.1h14.1l-5.7,22.7c-0.4,1.7-0.8,3.3-1.1,5s-0.5,3.2-0.5,4.5c0,2.1,0.4,3.6,1.1,4.5
				c0.7,0.9,1.9,1.4,3.4,1.4c1.3,0,2.7-0.5,4.1-1.5c1.5-1,3.1-2.5,4.7-4.6c1.7-2.1,3-4.1,3.9-6c1-1.9,1.7-4.1,2.3-6.7l4.1-19.4h7.7
				l-6.8,30.5c-0.2,0.8-0.4,1.9-0.6,3.2c-0.2,1.3-0.4,2.4-0.4,3.2c0,1.3,0.4,2.1,1.1,2.6s2,0.8,3.9,1l-0.5,2.2h-12.8l2.9-11.2
				l-0.6-0.2c-2.9,4.1-5.7,7.1-8.4,9.1c-2.7,2-5.4,3-8.1,3c-2.9,0-5.1-0.8-6.6-2.4c-1.5-1.6-2.2-4-2.2-7.1c0-0.9,0.1-1.9,0.3-3.1
				c0.2-1.2,0.4-2.5,0.7-3.8l3.8-15.8c0.3-1.3,0.5-2.4,0.6-3.1c0.1-0.8,0.2-1.4,0.2-2c0-1.3-0.4-2.3-1.1-2.8s-2-0.9-3.8-1
				L218.2,238.1z"/>
			<path class="st3" d="M282.8,217h2.6l-11.6,52.6c-0.3,1.4-0.5,2.5-0.6,3.2c-0.1,0.7-0.1,1.4-0.1,1.9c0,0.9,0.1,1.6,0.5,2.1
				c0.3,0.5,0.8,0.9,1.4,1.2s1.6,0.5,3.1,0.6l-0.4,2.2h-13.9l11.5-51.2c0.3-1.3,0.5-2.3,0.6-2.9c0.1-0.6,0.2-1.3,0.3-1.9
				s0.1-1.1,0.1-1.6c0-0.9-0.2-1.6-0.5-2c-0.3-0.5-0.8-0.8-1.4-1c-0.6-0.2-1.7-0.4-3.3-0.4l0.5-2.3L282.8,217z"/>
			<path class="st3" d="M314.7,272.6c-2.4,2.9-4.9,5.2-7.2,6.7c-2.4,1.5-4.9,2.3-7.6,2.3c-3.1,0-5.5-0.8-7-2.4
				c-1.5-1.6-2.3-3.9-2.3-7c0-1.9,0.3-4,0.8-6.3l5.5-23.1h-6.6l0.5-2.3c1.8-0.2,3.1-0.6,4.2-1.1s1.9-1.3,2.6-2.2
				c0.7-0.9,1.3-2.1,1.9-3.5c0.6-1.5,1.3-3.6,2.2-6.4h6.1l-2.5,11h14.1l-1,4.5h-14.2l-4.3,17.3c-1.2,4.8-1.8,8.4-1.8,10.8
				c0,1.8,0.4,3.2,1.2,4.1c0.8,0.9,1.9,1.4,3.5,1.4c1.4,0,2.8-0.5,4.3-1.6s3.1-2.6,4.9-4.8L314.7,272.6z"/>
			<path class="st3" d="M330.1,269.6c-0.3,1.5-0.5,2.6-0.6,3.3s-0.1,1.3-0.1,1.8c0,0.9,0.1,1.6,0.5,2.1c0.3,0.5,0.8,0.9,1.4,1.2
				s1.6,0.5,3.1,0.6l-0.4,2.2H320l6.7-30.1c0.4-1.7,0.6-3.1,0.8-4.1s0.2-1.9,0.2-2.6c0-0.9-0.1-1.5-0.4-2s-0.7-0.8-1.3-1.1
				c-0.6-0.2-1.6-0.4-3.1-0.4l0.5-2.4l10.9-0.4h2.6L330.1,269.6z M341.1,220.7l-2,8.6h-7.9l2-8.6H341.1z"/>
			<path class="st3" d="M370.3,248.5c-0.3-2.7-1.1-4.6-2.3-5.8s-3.1-1.8-5.6-1.8c-1.4,0-2.7,0.3-3.8,0.8s-2,1.3-2.7,2.3
				c-0.6,1-1,2.2-1,3.5c0,1.1,0.2,2.1,0.7,3s1.2,1.9,2.3,2.8s2.5,2.1,4.4,3.4c2.9,1.9,4.9,3.8,6.1,5.6s1.7,3.9,1.7,6.3
				c0,2.8-0.7,5.2-2,7.1c-1.3,2-3.2,3.4-5.5,4.4c-2.3,1-4.9,1.4-7.9,1.4c-2.6,0-5.1-0.2-7.3-0.6c-2.3-0.4-4.5-0.9-6.6-1.5l2.1-9.6
				h3.5c0.2,2.7,1,4.8,2.3,6.1s3.3,2,5.9,2c2.6,0,4.7-0.7,6.2-2c1.5-1.3,2.2-3.1,2.2-5.2c0-1.3-0.2-2.4-0.7-3.4s-1.1-2-2.1-2.9
				c-1-0.9-2.3-2-4.1-3.2c-1.9-1.3-3.4-2.5-4.5-3.6c-1.2-1.1-2.1-2.4-2.7-3.7s-1-2.9-1-4.5c0-2.5,0.6-4.6,1.8-6.4s3-3.2,5.2-4.1
				s4.9-1.4,7.9-1.4c4.9,0,9.2,0.6,13,1.9l-2,9.2L370.3,248.5L370.3,248.5z"/>
			<path class="st3" d="M412,271.9c-2.2,2.4-4.3,4.3-6.3,5.7s-4,2.4-6.1,3c-2,0.6-4.3,0.9-6.7,0.9c-2.4,0-4.4-0.4-6.1-1.1
				s-3.1-1.8-4.2-3.1s-1.9-2.9-2.5-4.7s-0.8-3.8-0.8-6c0-3.2,0.6-6.6,1.7-10.2c1.1-3.6,2.9-6.9,5.2-9.8s5.1-5.1,8.3-6.7
				s6.7-2.4,10.4-2.4c3.6,0,6.3,0.7,8.1,2.2s2.7,3.7,2.7,6.8c0,5.1-2.4,8.8-7.1,11.4s-11.8,3.8-21.1,3.8c-0.4,1.8-0.5,3.7-0.5,5.8
				c0,3.1,0.6,5.4,1.8,6.8c1.2,1.4,3.2,2.1,6,2.1c2.7,0,5.2-0.6,7.5-1.8s4.6-3,7-5.5L412,271.9z M388.3,257.8c2.7,0,5.1-0.2,7.2-0.5
				s3.8-0.7,5.3-1.2c1.5-0.5,2.7-1.1,3.7-1.8s1.8-1.4,2.3-2.3s1-1.7,1.2-2.6s0.3-1.9,0.3-2.8c0-1.8-0.4-3.2-1.3-4.3
				s-2.1-1.5-3.8-1.5c-2.1,0-4.1,0.8-6.1,2.3s-3.8,3.5-5.3,6.1C390.4,251.8,389.2,254.6,388.3,257.8z"/>
			<path class="st3" d="M435.2,237.7h2.7l-3.1,11l0.5,0.2c2.8-3.9,5.6-6.8,8.3-8.6s5.5-2.8,8.3-2.8c2.2,0,4,0.2,5.4,0.5l-2.1,10
				h-4.6c-0.2-1.5-0.6-2.7-1.1-3.5c-0.5-0.8-1.3-1.2-2.4-1.2c-1.2,0-2.5,0.6-4,1.8c-1.5,1.2-3.1,2.8-4.6,4.9c-1.6,2.1-2.8,4-3.5,5.8
				c-0.8,1.7-1.4,3.7-1.8,5.8l-4.1,19.3h-7.7l6.8-30.5c0.6-2.8,0.9-4.9,0.9-6.4c0-0.8-0.1-1.5-0.4-1.9s-0.7-0.8-1.3-1
				c-0.6-0.2-1.6-0.4-3-0.5l0.5-2.4L435.2,237.7z"/>
			<path class="st3" d="M497.6,238.1l1.2,2.2c-1.1,2.6-1.9,4.6-2.5,5.9s-1.4,2.9-2.4,4.8c-1,1.9-2.1,3.9-3.3,6
				c-1.2,2.1-2.6,4.4-4.2,6.8c-1.6,2.4-3.4,5-5.4,7.9c-2,2.9-4.4,6.1-7.1,9.7h-5.6l-4.1-33.7c-0.3-2.2-0.6-3.7-0.9-4.7
				s-0.8-1.6-1.4-2.1c-0.6-0.4-1.5-0.7-2.8-0.8l0.5-2.2h11.5l3.4,35.5c5.1-7,8.9-13,11.4-17.8c2.5-4.8,3.7-8.7,3.7-11.7
				c0-1.4-0.3-2.4-0.9-2.9c-0.6-0.5-1.6-0.8-3-0.9l0.5-2.2L497.6,238.1L497.6,238.1z"/>
			<path class="st3" d="M511.9,269.6c-0.3,1.5-0.5,2.6-0.6,3.3s-0.1,1.3-0.1,1.8c0,0.9,0.1,1.6,0.5,2.1c0.3,0.5,0.8,0.9,1.4,1.2
				s1.7,0.5,3.1,0.6l-0.4,2.2h-13.8l6.7-30.1c0.4-1.7,0.6-3.1,0.8-4.1s0.2-1.9,0.2-2.6c0-0.9-0.1-1.5-0.4-2s-0.7-0.8-1.3-1.1
				c-0.6-0.2-1.6-0.4-3.1-0.4l0.5-2.4l10.9-0.4h2.6L511.9,269.6z M522.9,220.7l-2,8.6H513l2-8.6H522.9z"/>
			<path class="st3" d="M555.5,248.8c-0.1-2.3-0.3-3.9-0.6-4.9c-0.3-1-0.8-1.8-1.5-2.3c-0.7-0.5-1.7-0.8-3-0.8c-3,0-5.7,1.2-8.1,3.6
				s-4.3,5.8-5.9,10.2s-2.3,8.6-2.3,12.6c0,1.3,0.1,2.4,0.3,3.5c0.2,1.1,0.6,2,1.2,2.9c0.5,0.8,1.3,1.4,2.2,1.9
				c0.9,0.5,2.1,0.7,3.5,0.7c2.7,0,5-0.5,7-1.5c2-1,4.1-2.6,6.3-4.8l2.7,2.7c-2.8,3.1-5.6,5.4-8.5,6.8s-5.9,2.1-9.2,2.1
				c-4.3,0-7.6-1.3-9.8-3.8c-2.2-2.6-3.3-6.3-3.3-11.1c0-3.2,0.6-6.7,1.8-10.5c1.2-3.8,2.9-7.1,5.2-10s5-5,8-6.5
				c3.1-1.4,6.3-2.1,9.8-2.1c2.4,0,4.5,0.1,6.2,0.4c1.8,0.3,3.3,0.6,4.7,0.9l-2.2,10.1L555.5,248.8L555.5,248.8z"/>
			<path class="st3" d="M576.2,269.6c-0.3,1.5-0.5,2.6-0.6,3.3s-0.1,1.3-0.1,1.8c0,0.9,0.2,1.6,0.5,2.1s0.8,0.9,1.4,1.2
				s1.7,0.5,3.1,0.6l-0.4,2.2h-13.8l6.7-30.1c0.4-1.7,0.7-3.1,0.8-4.1c0.2-1,0.2-1.9,0.2-2.6c0-0.9-0.1-1.5-0.4-2s-0.7-0.8-1.3-1.1
				c-0.6-0.2-1.6-0.4-3.1-0.4l0.5-2.4l10.9-0.4h2.6L576.2,269.6z M587.2,220.7l-2,8.6h-7.9l2-8.6H587.2z"/>
			<path class="st3" d="M605.2,281.5c-4.6,0-8.2-1.3-10.7-3.9s-3.8-6.3-3.8-11.1c0-1.8,0.2-3.9,0.7-6.3c0.6-3.1,1.4-5.9,2.4-8.3
				c1.3-3,3-5.6,5.2-7.8c2.1-2.2,4.5-3.9,7.2-5s5.6-1.7,8.8-1.7c3.4,0,6.2,0.6,8.4,2c2.2,1.3,3.8,3.1,4.8,5.3s1.5,4.8,1.5,7.8
				c0,2.6-0.4,5.5-1.1,8.5c-1.1,4.4-2.6,8.1-4.7,11.2s-4.6,5.4-7.7,7C612.9,280.7,609.3,281.5,605.2,281.5z M598.5,268.4
				c0,3.3,0.7,5.7,2,7.3c1.3,1.6,3.4,2.3,6.1,2.3c2.9,0,5.5-1.3,7.8-3.9c2.3-2.6,4-6.3,5.3-11s2-8.9,2-12.4c0-3.2-0.6-5.6-1.9-7.3
				c-1.3-1.6-3.2-2.4-5.8-2.4c-3.1,0-5.8,1.3-8.1,3.9c-2.3,2.6-4.1,6.3-5.4,11.1C599.1,260.8,598.5,264.9,598.5,268.4z"/>
			<path class="st3" d="M662.7,248.5c-0.3-2.7-1.1-4.6-2.3-5.8c-1.2-1.2-3.1-1.8-5.6-1.8c-1.4,0-2.7,0.3-3.8,0.8s-2,1.3-2.7,2.3
				c-0.7,1-1,2.2-1,3.5c0,1.1,0.2,2.1,0.7,3c0.5,0.9,1.2,1.9,2.3,2.8s2.5,2.1,4.4,3.4c2.9,1.9,4.9,3.8,6.1,5.6s1.7,3.9,1.7,6.3
				c0,2.8-0.7,5.2-2,7.1c-1.3,2-3.2,3.4-5.5,4.4s-4.9,1.4-7.8,1.4c-2.6,0-5.1-0.2-7.3-0.6s-4.5-0.9-6.6-1.5l2.1-9.6h3.5
				c0.2,2.7,1,4.8,2.3,6.1s3.3,2,5.9,2c2.7,0,4.7-0.7,6.2-2s2.2-3.1,2.2-5.2c0-1.3-0.2-2.4-0.7-3.4s-1.1-2-2.1-2.9
				c-1-0.9-2.3-2-4.1-3.2c-1.9-1.3-3.4-2.5-4.5-3.6c-1.2-1.1-2.1-2.4-2.7-3.7s-1-2.9-1-4.5c0-2.5,0.6-4.6,1.8-6.4s3-3.2,5.2-4.1
				c2.2-0.9,4.9-1.4,7.9-1.4c4.9,0,9.2,0.6,13,1.9l-2,9.2L662.7,248.5L662.7,248.5z"/>
			<path class="st3" d="M720,280.8h-18.8l0.5-2.2c1.2-0.1,2-0.4,2.6-0.7c0.6-0.3,1.1-0.8,1.5-1.4c0.4-0.6,0.9-1.6,1.3-2.9
				s1-3.4,1.6-6.1l9.5-43.6h-5.7c-1.8,0-3.3,0.3-4.4,0.8c-1.1,0.5-2.2,1.5-3.3,3s-2.4,3.9-4,7.3h-4.3l3.3-15h46.5l-3.5,15.7h-4.3
				c0-2.9-0.1-5.1-0.2-6.5c-0.2-1.4-0.4-2.5-0.8-3.3c-0.4-0.8-0.9-1.3-1.5-1.6s-1.7-0.4-3.2-0.4h-6.6l-9.7,44
				c-0.3,1.2-0.5,2.1-0.6,2.8c-0.1,0.7-0.2,1.4-0.3,2.2s-0.1,1.4-0.1,2c0,0.9,0.2,1.6,0.5,2.2s0.7,0.9,1.3,1.1s1.6,0.4,3.1,0.5
				L720,280.8z"/>
			<path class="st3" d="M770.8,271.9c-2.2,2.4-4.3,4.3-6.3,5.7s-4,2.4-6.1,3c-2,0.6-4.3,0.9-6.7,0.9c-2.3,0-4.4-0.4-6.1-1.1
				s-3.1-1.8-4.2-3.1c-1.1-1.3-1.9-2.9-2.5-4.7s-0.8-3.8-0.8-6c0-3.2,0.6-6.6,1.7-10.2c1.1-3.6,2.9-6.9,5.2-9.8s5.1-5.1,8.3-6.7
				c3.2-1.6,6.7-2.4,10.3-2.4c3.6,0,6.3,0.7,8.1,2.2c1.8,1.5,2.7,3.7,2.7,6.8c0,5.1-2.4,8.8-7.1,11.4s-11.8,3.8-21.1,3.8
				c-0.4,1.8-0.5,3.7-0.5,5.8c0,3.1,0.6,5.4,1.8,6.8c1.2,1.4,3.2,2.1,6,2.1c2.7,0,5.2-0.6,7.5-1.8c2.2-1.2,4.6-3,7-5.5L770.8,271.9z
				 M747.1,257.8c2.7,0,5.1-0.2,7.2-0.5s3.8-0.7,5.3-1.2c1.5-0.5,2.7-1.1,3.7-1.8c1-0.7,1.8-1.4,2.3-2.3s1-1.7,1.2-2.6
				c0.2-0.9,0.3-1.9,0.3-2.8c0-1.8-0.4-3.2-1.3-4.3c-0.8-1-2.1-1.5-3.8-1.5c-2.1,0-4.1,0.8-6.1,2.3c-2,1.5-3.8,3.5-5.3,6.1
				C749.2,251.8,748,254.6,747.1,257.8z"/>
			<path class="st3" d="M809,248.8c-0.1-2.3-0.3-3.9-0.6-4.9c-0.3-1-0.8-1.8-1.5-2.3s-1.7-0.8-3-0.8c-3,0-5.7,1.2-8.1,3.6
				s-4.3,5.8-5.9,10.2c-1.5,4.4-2.3,8.6-2.3,12.6c0,1.3,0.1,2.4,0.3,3.5s0.6,2,1.2,2.9c0.5,0.8,1.3,1.4,2.2,1.9
				c0.9,0.5,2.1,0.7,3.5,0.7c2.7,0,5-0.5,7-1.5c2-1,4.1-2.6,6.3-4.8l2.7,2.7c-2.8,3.1-5.6,5.4-8.5,6.8s-5.9,2.1-9.2,2.1
				c-4.3,0-7.6-1.3-9.8-3.8c-2.2-2.6-3.3-6.3-3.3-11.1c0-3.2,0.6-6.7,1.8-10.5c1.2-3.8,2.9-7.1,5.2-10s5-5,8-6.5
				c3.1-1.4,6.3-2.1,9.8-2.1c2.4,0,4.5,0.1,6.2,0.4s3.3,0.6,4.7,0.9l-2.2,10.1L809,248.8L809,248.8z"/>
			<path class="st3" d="M857.8,280.8h-14l5.7-22.6c0.4-1.5,0.7-3.1,1-4.8c0.3-1.8,0.5-3.3,0.5-4.7c0-2.1-0.4-3.6-1.1-4.6
				c-0.7-0.9-1.9-1.4-3.4-1.4c-1.3,0-2.6,0.5-4,1.4c-1.4,1-3,2.4-4.5,4.3s-2.9,3.9-4,5.8c-1.1,2-1.9,4.4-2.5,7.2l-4.1,19.3h-7.7
				l6.8-30.5c0.2-0.7,0.3-1.7,0.6-3s0.4-2.4,0.4-3.3c0-0.8-0.1-1.5-0.4-1.9s-0.7-0.8-1.3-1s-1.6-0.4-3.1-0.5l0.5-2.4l10.1-0.4h2.5
				l-3,11.6l0.5,0.2c2.9-4.1,5.7-7.1,8.4-9.1c2.7-2,5.4-3,8.1-3c2.9,0,5.1,0.8,6.5,2.4c1.5,1.6,2.2,3.9,2.2,7.1
				c0,1.1-0.1,2.2-0.3,3.5s-0.4,2.4-0.7,3.4l-3.8,15.9c-0.5,2.1-0.8,3.8-0.8,5.1c0,0.9,0.2,1.6,0.5,2.1s0.8,0.9,1.4,1.2
				s1.7,0.5,3.1,0.6L857.8,280.8z"/>
			<path class="st3" d="M882.9,281.5c-4.6,0-8.2-1.3-10.7-3.9s-3.8-6.3-3.8-11.1c0-1.8,0.2-3.9,0.7-6.3c0.6-3.1,1.4-5.9,2.4-8.3
				c1.3-3,3-5.6,5.2-7.8c2.1-2.2,4.5-3.9,7.2-5s5.6-1.7,8.8-1.7c3.4,0,6.2,0.6,8.4,2c2.2,1.3,3.8,3.1,4.8,5.3s1.5,4.8,1.5,7.8
				c0,2.6-0.4,5.5-1.1,8.5c-1.1,4.4-2.6,8.1-4.7,11.2s-4.6,5.4-7.7,7C890.6,280.7,887,281.5,882.9,281.5z M876.2,268.4
				c0,3.3,0.7,5.7,2,7.3c1.3,1.6,3.4,2.3,6.1,2.3c2.9,0,5.5-1.3,7.8-3.9c2.3-2.6,4-6.3,5.3-11s2-8.9,2-12.4c0-3.2-0.6-5.6-1.9-7.3
				c-1.3-1.6-3.2-2.4-5.8-2.4c-3.1,0-5.8,1.3-8.1,3.9c-2.3,2.6-4.1,6.3-5.4,11.1C876.8,260.8,876.2,264.9,876.2,268.4z"/>
			<path class="st3" d="M933.5,217h2.6l-11.6,52.6c-0.3,1.4-0.5,2.5-0.6,3.2c-0.1,0.7-0.1,1.4-0.1,1.9c0,0.9,0.2,1.6,0.5,2.1
				s0.8,0.9,1.4,1.2s1.7,0.5,3.1,0.6l-0.4,2.2h-13.9l11.5-51.2c0.3-1.3,0.5-2.3,0.6-2.9c0.1-0.6,0.2-1.3,0.3-1.9s0.1-1.1,0.1-1.6
				c0-0.9-0.2-1.6-0.5-2c-0.3-0.5-0.8-0.8-1.4-1s-1.7-0.4-3.3-0.4l0.5-2.3L933.5,217z"/>
			<path class="st3" d="M953.5,281.5c-4.6,0-8.2-1.3-10.7-3.9s-3.8-6.3-3.8-11.1c0-1.8,0.2-3.9,0.7-6.3c0.6-3.1,1.4-5.9,2.4-8.3
				c1.3-3,3-5.6,5.2-7.8c2.1-2.2,4.5-3.9,7.2-5s5.6-1.7,8.8-1.7c3.4,0,6.2,0.6,8.4,2c2.2,1.3,3.8,3.1,4.8,5.3s1.5,4.8,1.5,7.8
				c0,2.6-0.4,5.5-1.1,8.5c-1.1,4.4-2.6,8.1-4.7,11.2s-4.6,5.4-7.7,7C961.2,280.7,957.6,281.5,953.5,281.5z M946.8,268.4
				c0,3.3,0.7,5.7,2,7.3c1.3,1.6,3.4,2.3,6.1,2.3c2.9,0,5.5-1.3,7.8-3.9c2.3-2.6,4-6.3,5.3-11s2-8.9,2-12.4c0-3.2-0.6-5.6-1.9-7.3
				c-1.3-1.6-3.2-2.4-5.8-2.4c-3.1,0-5.8,1.3-8.1,3.9c-2.3,2.6-4.1,6.3-5.4,11.1C947.5,260.8,946.8,264.9,946.8,268.4z M979.1,216.5
				l-0.5,2.2l-16.7,14.4l-2.8-2.7l11.7-13.9L979.1,216.5L979.1,216.5z"/>
			<path class="st3" d="M986.1,284.6c-0.6,0.7-1,1.4-1.4,2s-0.7,1.3-0.8,1.9c-0.2,0.6-0.3,1.4-0.3,2.2c0,2.2,0.8,3.9,2.4,4.9
				c1.6,1,4,1.5,7.3,1.5c2.9,0,5.4-0.5,7.4-1.6c2-1,3.6-2.6,5-4.8c1.4-2.2,2.6-4.8,3.6-8c1-3.2,2.1-7.4,3.1-12.7l-0.6-0.1
				c-2.9,4-5.6,6.8-8,8.6s-5.1,2.7-8,2.7c-3.2,0-5.8-1.2-7.6-3.7s-2.7-5.9-2.7-10.4c0-3.3,0.4-6.5,1.3-9.8c0.9-3.2,2.1-6.1,3.6-8.7
				s3.3-4.7,5.2-6.4s4-3,6.2-3.8s4.4-1.3,6.8-1.3c1.9,0,3.6,0.2,5.3,0.7c1.7,0.4,3.3,1.2,5,2.3l4.1-2.9l2.8,0.7l-4.6,20.9
				c-0.3,1.5-0.7,3.2-1,5l-1.2,5.8c-1.4,7-2.5,11.9-3.3,14.5c-1,3.1-2.2,5.6-3.6,7.7c-1.3,1.9-2.8,3.4-4.5,4.7
				c-1.8,1.3-3.8,2.2-6.1,2.9c-2.3,0.7-5,1-8.1,1c-11.2,0-16.9-3.3-16.9-9.8c0-1.7,0.5-3.2,1.5-4.5s2.6-2.8,4.9-4.3L986.1,284.6z
				 M998.9,276.2c1.5,0,3-0.5,4.5-1.6c1.5-1,3.1-2.7,4.8-5s3-4.4,4-6.5s1.8-4.6,2.4-7.7c0.7-3.1,1-5.7,1-8c0-2.3-0.5-4-1.5-5.1
				s-2.6-1.6-4.9-1.6c-1.3,0-2.4,0.2-3.6,0.6s-2.3,1.1-3.4,2c-1.2,0.9-2.3,2.2-3.3,3.7c-1,1.5-2,3.4-2.9,5.5s-1.5,4.5-2,7
				s-0.7,4.9-0.7,7.3c0,3.1,0.5,5.4,1.3,6.9C995.6,275.4,997,276.2,998.9,276.2z"/>
			<path class="st3" d="M1043.3,269.6c-0.3,1.5-0.5,2.6-0.6,3.3c-0.1,0.7-0.1,1.3-0.1,1.8c0,0.9,0.2,1.6,0.4,2.1
				c0.3,0.5,0.8,0.9,1.4,1.2s1.7,0.5,3.1,0.6l-0.4,2.2h-13.8l6.7-30.1c0.4-1.7,0.7-3.1,0.8-4.1s0.2-1.9,0.2-2.6c0-0.9-0.1-1.5-0.4-2
				s-0.7-0.8-1.3-1.1s-1.6-0.4-3.1-0.4l0.5-2.4l10.9-0.4h2.6L1043.3,269.6z M1054.3,220.7l-2.1,8.6h-7.9l2.1-8.6H1054.3z"/>
			<path class="st3" d="M1086.8,248.8c-0.1-2.3-0.3-3.9-0.6-4.9c-0.3-1-0.8-1.8-1.5-2.3s-1.7-0.8-3-0.8c-3,0-5.7,1.2-8.1,3.6
				s-4.3,5.8-5.9,10.2c-1.5,4.4-2.3,8.6-2.3,12.6c0,1.3,0.1,2.4,0.3,3.5s0.6,2,1.2,2.9c0.6,0.8,1.3,1.4,2.2,1.9
				c0.9,0.5,2.1,0.7,3.5,0.7c2.7,0,5.1-0.5,7-1.5c2-1,4.1-2.6,6.3-4.8l2.7,2.7c-2.8,3.1-5.6,5.4-8.4,6.8s-5.9,2.1-9.2,2.1
				c-4.3,0-7.6-1.3-9.8-3.8c-2.2-2.6-3.3-6.3-3.3-11.1c0-3.2,0.6-6.7,1.8-10.5c1.2-3.8,2.9-7.1,5.2-10c2.3-2.9,5-5,8-6.5
				c3.1-1.4,6.3-2.1,9.8-2.1c2.4,0,4.4,0.1,6.2,0.4s3.3,0.6,4.7,0.9l-2.2,10.1L1086.8,248.8L1086.8,248.8z"/>
			<path class="st3" d="M1111.5,281.5c-4.6,0-8.2-1.3-10.7-3.9c-2.5-2.6-3.8-6.3-3.8-11.1c0-1.8,0.2-3.9,0.7-6.3
				c0.6-3.1,1.4-5.9,2.4-8.3c1.3-3,3.1-5.6,5.2-7.8c2.1-2.2,4.5-3.9,7.2-5s5.6-1.7,8.8-1.7c3.4,0,6.2,0.6,8.4,2
				c2.2,1.3,3.8,3.1,4.8,5.3s1.5,4.8,1.5,7.8c0,2.6-0.4,5.5-1.1,8.5c-1.1,4.4-2.6,8.1-4.7,11.2s-4.6,5.4-7.7,7
				C1119.2,280.7,1115.6,281.5,1111.5,281.5z M1104.7,268.4c0,3.3,0.7,5.7,2,7.3s3.4,2.3,6.1,2.3c2.9,0,5.5-1.3,7.8-3.9
				c2.3-2.6,4-6.3,5.3-11c1.3-4.7,2-8.9,2-12.4c0-3.2-0.6-5.6-1.9-7.3c-1.3-1.6-3.2-2.4-5.8-2.4c-3.1,0-5.8,1.3-8.1,3.9
				c-2.3,2.6-4.1,6.3-5.4,11.1C1105.4,260.8,1104.7,264.9,1104.7,268.4z"/>
			<path class="st3" d="M1168.9,248.5c-0.3-2.7-1.1-4.6-2.3-5.8c-1.2-1.2-3.1-1.8-5.6-1.8c-1.4,0-2.7,0.3-3.8,0.8s-2,1.3-2.7,2.3
				c-0.7,1-1,2.2-1,3.5c0,1.1,0.2,2.1,0.7,3c0.4,0.9,1.2,1.9,2.3,2.8s2.5,2.1,4.4,3.4c2.9,1.9,4.9,3.8,6.1,5.6s1.7,3.9,1.7,6.3
				c0,2.8-0.7,5.2-2,7.1c-1.3,2-3.2,3.4-5.5,4.4s-4.9,1.4-7.8,1.4c-2.6,0-5.1-0.2-7.3-0.6s-4.5-0.9-6.6-1.5l2.1-9.6h3.5
				c0.2,2.7,1,4.8,2.3,6.1s3.3,2,5.9,2c2.7,0,4.7-0.7,6.2-2s2.2-3.1,2.2-5.2c0-1.3-0.2-2.4-0.7-3.4s-1.1-2-2.1-2.9
				c-0.9-0.9-2.3-2-4.1-3.2c-1.9-1.3-3.4-2.5-4.6-3.6c-1.2-1.1-2.1-2.4-2.7-3.7c-0.6-1.4-1-2.9-1-4.5c0-2.5,0.6-4.6,1.8-6.4
				s2.9-3.2,5.2-4.1c2.2-0.9,4.9-1.4,7.9-1.4c4.9,0,9.2,0.6,13,1.9l-2.1,9.2L1168.9,248.5L1168.9,248.5z"/>
		</g>
	</g>
</g>
</svg>
