<svg xmlns="http://www.w3.org/2000/svg" viewBox="0 0 80 80"><defs><style>.cls-1{fill:#f57c00;}</style></defs><title>Recurso 4</title><g id="Capa_2" data-name="Capa 2"><g id="Capa_1-2" data-name="Capa 1"><path class="cls-1" d="M80,40A40,40,0,1,1,40,0,40,40,0,0,1,80,40"/><path d="M54.38,21.31V58.69A4.32,4.32,0,0,1,50.06,63H29.94a4.31,4.31,0,0,1-4.31-4.31V21.31A4.31,4.31,0,0,1,29.94,17H50.06a4.32,4.32,0,0,1,4.32,4.31M63,26.52V27.6a.54.54,0,0,1-.54.54H60.84v.54a.54.54,0,0,1-.54.54H56.53V24.91H60.3a.54.54,0,0,1,.54.54V26h1.62a.54.54,0,0,1,.54.54m0,8.63v1.08a.54.54,0,0,1-.54.54H60.84v.53a.54.54,0,0,1-.54.54H56.53V33.53H60.3a.54.54,0,0,1,.54.54v.54h1.62a.54.54,0,0,1,.54.54m0,8.62v1.08a.54.54,0,0,1-.54.54H60.84v.54a.54.54,0,0,1-.54.54H56.53V42.16H60.3a.54.54,0,0,1,.54.54v.53h1.62a.54.54,0,0,1,.54.54m0,8.63v1.08a.54.54,0,0,1-.54.54H60.84v.53a.54.54,0,0,1-.54.54H56.53V50.78H60.3a.54.54,0,0,1,.54.54v.54h1.62a.54.54,0,0,1,.54.54M19.7,50.78h3.77v4.31H19.7a.54.54,0,0,1-.54-.54V54H17.54a.54.54,0,0,1-.54-.54V52.4a.54.54,0,0,1,.54-.54h1.62v-.54a.54.54,0,0,1,.54-.54m0-8.62h3.77v4.31H19.7a.54.54,0,0,1-.54-.54v-.54H17.54a.54.54,0,0,1-.54-.54V43.77a.54.54,0,0,1,.54-.54h1.62V42.7a.54.54,0,0,1,.54-.54m0-8.63h3.77v4.31H19.7a.54.54,0,0,1-.54-.54v-.53H17.54a.54.54,0,0,1-.54-.54V35.15a.54.54,0,0,1,.54-.54h1.62v-.54a.54.54,0,0,1,.54-.54m0-8.62h3.77v4.31H19.7a.54.54,0,0,1-.54-.54v-.54H17.54A.54.54,0,0,1,17,27.6V26.52a.54.54,0,0,1,.54-.54h1.62v-.53a.54.54,0,0,1,.54-.54"/></g></g></svg>