<svg xmlns="http://www.w3.org/2000/svg" viewBox="0 0 80 80"><defs><style>.cls-1{fill:#f57c00;}</style></defs><title>Recurso 5</title><g id="Capa_2" data-name="Capa 2"><g id="Capa_1-2" data-name="Capa 1"><path class="cls-1" d="M40,80A40,40,0,1,1,80,40"/><path class="cls-1" d="M80,40A40,40,0,0,1,40,80"/><path d="M60,40.5A20.5,20.5,0,1,1,39.5,20,20.5,20.5,0,0,1,60,40.5M49.87,46.73a1.32,1.32,0,0,0-2.22-1.44c-4.41,6.83-11.88,6.84-16.3,0a1.32,1.32,0,0,0-2.22,1.44c5.46,8.44,15.28,8.45,20.74,0M27.27,35.21a5.62,5.62,0,1,0,5.62-5.62,5.62,5.62,0,0,0-5.62,5.62m13.26,0a5.58,5.58,0,1,0,5.58-5.58,5.59,5.59,0,0,0-5.58,5.58m5.58-4a4,4,0,0,0-1.87.47h0a1.64,1.64,0,1,1-1.64,1.63h0a3.84,3.84,0,0,0-.46,1.87,4,4,0,1,0,4-4m-13.22,0a3.93,3.93,0,0,0-1.87.47h0a1.64,1.64,0,1,1-1.63,1.63h0a4,4,0,1,0,3.5-2.1"/></g></g></svg>