<svg xmlns="http://www.w3.org/2000/svg" viewBox="0 0 80 80"><defs><style>.cls-1{fill:#f57c00;}</style></defs><title>Recurso 6</title><g id="Capa_2" data-name="Capa 2"><g id="Capa_1-2" data-name="Capa 1"><path class="cls-1" d="M80,40A40,40,0,1,1,40,0,40,40,0,0,1,80,40"/><path d="M66.18,48,53.3,19.33a2.25,2.25,0,0,0-2-1.33h-9l.18,1.76A1.13,1.13,0,0,1,41.3,21H38.69a1.12,1.12,0,0,1-1.12-1.24L37.75,18h-9a2.25,2.25,0,0,0-2.05,1.33L13.81,48A9.36,9.36,0,0,0,13,51.75,2.24,2.24,0,0,0,15.25,54h20a1.12,1.12,0,0,1-1.12-1.24l1-9.75a1.13,1.13,0,0,1,1.12-1h7.42a1.13,1.13,0,0,1,1.12,1l1,9.75A1.12,1.12,0,0,1,44.72,54h20A2.25,2.25,0,0,0,67,51.75,9.2,9.2,0,0,0,66.18,48M36.88,26.51l.31-3a1.12,1.12,0,0,1,1.11-1h3.4a1.11,1.11,0,0,1,1.11,1l.31,3A1.12,1.12,0,0,1,42,27.75H38a1.12,1.12,0,0,1-1.11-1.24M43.17,39H36.83a1.12,1.12,0,0,1-1.11-1.24L36.41,31a1.13,1.13,0,0,1,1.12-1h4.94a1.11,1.11,0,0,1,1.11,1l.7,6.75A1.12,1.12,0,0,1,43.17,39"/></g></g></svg>