<svg xmlns="http://www.w3.org/2000/svg" viewBox="0 0 346.58 316.02"><defs><style>.cls-1{fill:#d7eaf9;}.cls-2{fill:#88d161;}.cls-3{fill:#c9e0dc;}.cls-4{fill:#223341;}.cls-5{fill:#fff;}.cls-6{fill:#253a54;}.cls-7{fill:none;stroke:#000;stroke-miterlimit:10;}.cls-8{fill:#bac7c9;}.cls-9{fill:#f57c00;}.cls-10{fill:#12afaf;}</style></defs><title>Recurso 1</title><g id="Capa_2" data-name="Capa 2"><g id="Capa_1-2" data-name="Capa 1"><path class="cls-1" d="M188.45,0c-87.12,0-158,70.88-158,158s70.89,158,158,158,158.13-70.77,158.13-157.89S275.58,0,188.45,0"/><path class="cls-2" d="M338.17,201.06c-2,0-4.77,1-4.77,1.71s-2.84,1.93-3.86,2.38-2.73,3.3-3.18,4.21-2.73.68-3.52,1-2.62,1.82-2.62,2.61-.45.68-1-.23l-1.13,1.14-1.37,1.48c-.79,2.38-3.29,5.45-4.2,5.68s-1,4.43-1,6.13a8.08,8.08,0,0,0,1.47,4.66v1.36l.23,2.73a4.79,4.79,0,0,0,1.59,4.31c.46.34,4.32-.68,5.8-1l2-.79a161,161,0,0,0,16.24-37.72,1.11,1.11,0,0,1-.68.34"/><path class="cls-2" d="M77.24,205c-.22.45,2.62,3.29,3.64,4.32a29.43,29.43,0,0,1,3.86,7.27,13,13,0,0,1,0,4.65,8.18,8.18,0,0,0,.57,2.39c.11.57-.91,5.11-.57,7s-2.16,7.61-2,10.57,1.36,6.59,1.81,6.36.69,2.61-.11,3-1.93,2.61-1.36,2.73,0,2.38.11,3.29.91,6.93,1,8.41,2.28,5.11,2.73,6.36.91,3.52,1,3.86l.34.8a10.3,10.3,0,0,1,2.27,1c.46.34,3.87.11,5-.12s.12-1.24-.34-1.7-.91-3.18-1.48-3.41-.79-3.63-.34-4.43,2.5-1.93,2.73-2.61.23-3.52-.23-4,.12-4-.22-5.79,3.06-3.41,3.29-4.77,4-2.95,4.77-3.63,1.59-4.77,1.14-5.57,1.36-1.59,2.16-1.59a12.12,12.12,0,0,0,2-.57c.23,0,1.25-1.82,1.7-2.16s1.59-4.65,2.5-5.34a7.67,7.67,0,0,0,1.71-4,10.56,10.56,0,0,1,1.93-3.64c.45-.68,4-2.27,4.65-2.5s1.59-5.9,1.82-7.95a46.71,46.71,0,0,1,1.37-5.45c0-.68,1.13-1.25,1.36-1.48s1-2.84,1.59-3.41,2.5-3.06,2.5-3.63a18.19,18.19,0,0,1,.68-3.18v-3.52c-.57-1.71-2.5-3.86-3-3.3s-2.62-1.47-3.75-1.93a18.89,18.89,0,0,0-4.55-.68c-.68,0-3.06-1.93-4.2-2.27a38.5,38.5,0,0,1-4.32-1.14c-.45-.34-1.13-4.43-3.4-5.79s-6.14-4.55-6.59-5.68-4.66-3.52-6-4.32-3.3-.91-3.52-.56-1.93-2.28-2.73-3-3.41-1.25-3.52-.68-1.82.23-2.16-.23-1.7.23-2.39.46S78,167,77,167.78s-2.16-.68-2.84-1a6.77,6.77,0,0,0-3.75,1c-.68.45-2.16-3.41-1.82-5.22s-1.59-5.34-3.18-5.46-1.93-3.86-1.71-5.22S61,149.6,60.2,149.49s-2.61,1.82-3,2.84-7.27-1.25-6.47-5.45,4.08-8.52,4.88-9,5.22-.68,6.25-.11a1.8,1.8,0,0,0,2-.23,13.92,13.92,0,0,1,4.89.46c1,.45,2.61,4.66,3.75,5.11s1.47-2.73,1.7-3.52a10.16,10.16,0,0,0-.8-3.3c-.22-.56,1.82-5.68,3.53-6.47s3.52-3.75,3.29-4.2,1.36-.91,1.7-1.14,0-4.32.57-5.23a19.77,19.77,0,0,1,4.89-3.18c1-.45,1.7-3,1.36-3.52s2.61-2.95,4.2-3.52,2.84.91,2.5,1,2.39-1.25,3.3-1.82,0-2.61-.69-3.18-.22-2.72.57-2.95a2.84,2.84,0,0,0,1.25-2.5c-.23-.34,3.41.34,4.77-.68s.34,2.39-.57,3.86a1.6,1.6,0,0,0,.4,2.22,1.65,1.65,0,0,0,1,.28,1.47,1.47,0,0,1,1.47,1.14c.12.34,1.48-.46,2.39,0s1.48-1.25,1.48-2-2.16-2.27-2.5-3.29a52.19,52.19,0,0,1-.46-7.39c0-1-1.47-2.84-1.93-2.49s-1.36-2.84-2.16-3.53a4,4,0,0,1-.9-2.72c0-.46-2.5-3.18-3.19-4.43s-1.47-1-1.59-.46-1.81.69-2.61.57-1.36-3-1.36-4-3.3-1.25-3.86-2.16-2.73-.46-3.07-1a3.6,3.6,0,0,0-2.61-.91c-.34.22-.23,8.06-.57,10.11s-2.16,4-2.84,3.86S81,88,81.33,87.92s-1.25,2.27-1.47,3.86-1.82,0-2-1.47-1.82-3.41-2.16-3-1.36-.56-1.81-.22-3.41-1.71-4.66-2.39-1.82-4.32-2.61-4.66-.12-.79-.12-1.36S68.84,76,69.52,75.2a55,55,0,0,1,4.32-5c1-.79,1.81-2.61,1.59-3s4.43-1.82,5.68-2.16,2.27-3.86,2.49-4.89a4.17,4.17,0,0,0-1.36-3.06c-.57-.23,1.71-.34,2.5.11s3.07-.68,4.09-.23l4.2,2.5L92.8,62l-.56,4.32c-3.64,1.47-4.66,4.09-3.41,4s7,2.5,8.63,3.64,2.16-1.71,2.62-2.61a7.72,7.72,0,0,0,0-4.21c-.46-.56,1.81-.34,2.49.23s1.37-.57,1.82-.91.68-2.61,1-3.06-1-.91-1.13-1.6-2.61-1.7-3.41-2.15a2.05,2.05,0,0,1-.57-2.5c.34-.34-.22-2.62-.68-3.3s-3.07-1.36-4-1.36-1.81-2-2.38-2.38a16.38,16.38,0,0,0-4.88-.46c-.8.23-2.39-2.5-3.87-1.59s-3-.91-3.63-1.36-4.09,3.29-4,5.79,1.25,5,1.82,5.11S78.61,60,78,60.66,76,60,76.56,59.41s-1.48-3.29-2.16-4.32-2.27-1.47-3.4-1.93l-2,2.27a5.84,5.84,0,0,1,.23,3.07c-.46,1.59-1.82,1.82-1.82,1.14a1.91,1.91,0,0,0-1.48-.57,157.09,157.09,0,0,0-35.55,82.58,7.63,7.63,0,0,1,1.82,2.62c.45,1.36,2.84,2.27,3.29,2.61s.57-2.61.23-3.41.56-1.14.56-.68,2.28,3.06,3,4.09,1.48,6.93,2.27,8.18,7.61,4,9.88,4.43a12.46,12.46,0,0,1,5.45,3.63c.46.68,3.41,1,4,1.36a35.16,35.16,0,0,1,2.73,2.73,4,4,0,0,1,1.13,1.93c0,.34,3.87,1.82,4.89,2.84a2.39,2.39,0,0,0,2.84.34c.23-.45,1,2.05,1.47,3s.46,2.95.12,3.29-.8,4.2-1.48,5-2,6.47-1.7,7.61a8.37,8.37,0,0,0,3,3.75.9.9,0,0,1,.27,1.25.84.84,0,0,1-.38.34c-.57,0-.34,5.56,1.13,6.36s2.73,1.82,2.5,2.16"/><path class="cls-2" d="M85,42.14c1.82-.34,5-.9,5.23-1.36a4.93,4.93,0,0,0-.12-2.16H91c.68,0,1.93-3.86,2.61-4.77s5-2.27,6-2.84,3.3-2.72,4.09-3.07,2.16-2.27,1.93-2.61,3-2.27,4.09-2.72,1.82-1.82,1.37-1.94-6.82,3.41-12.84,6.82A178.49,178.49,0,0,0,78.72,43.05Z"/><path class="cls-2" d="M199.36,238.89c1.93-1.14,5.45-6.25,6.59-7.27s1.93-4.88,2.16-5.68a6.36,6.36,0,0,1,2.5-2.38c.56-.23,2.61-8.64,4.43-10.57s3.86-10.79,3.63-14.08,1.14-9.32,1.59-10.8a16.71,16.71,0,0,1,3.29-4.65,95.45,95.45,0,0,0,6.37-9.21c1.36-2.27,2.72-7.27,2.38-8.51s-3.29-2.05-3.86-1.37-3.41,1-4.32,1-3-4.88-4.2-5.79-2.39-6.59-3.18-7.61a52.6,52.6,0,0,0-3.41-4.32c-.68-.56-.79-3.52-.91-4.31s1.25.45,1.48,1.7,3.52,5.91,4.54,7.5,3.75,6.7,4.43,8.29,6.71.8,8.75-.11,4.43-2.5,4.54-3.07,3.18-1.93,4.09-2.61,1.59-4.32,2.16-4.89-.45-4.09-1.13-5.11-3.75-1.82-4.44-1.48-1.93-2.27-2.49-3.29-2.84-2.27-3.07-2.95a2.51,2.51,0,0,1,1-2.05c.34-.23,4.77,2.84,6,4.43a25.08,25.08,0,0,1,3,4.89c.22.56,3.74.68,4.54.11a1.25,1.25,0,0,1,1.76.1,1,1,0,0,1,.17.24h1l3.86-.57a7.48,7.48,0,0,1,2.28,4.09,4.41,4.41,0,0,0,1.81,2.16c.69.11,1.25,2.61,1.48,3.29a57.23,57.23,0,0,1,2.84,5.91,32.27,32.27,0,0,0,2.73,5.45,12.47,12.47,0,0,1,.79,3.87,2.61,2.61,0,0,0,2.27,1.81c.8-.11,2.62-5.56,3.07-7.61s1.82-3.75,2.16-3.75.68-1.13.68-1.58,2.16-.35,2.39-.91.79-4.21,1.59-4.78a34.73,34.73,0,0,1,4.54-2.72c.91-.34,3.52,1.82,4.09,2.84a8.49,8.49,0,0,1,.79,4c-.22.35,1.25,2.62,2.62,2.62s1.7,1.7,1.82,2.27,1.81,2.38,2.15,3.18a7.48,7.48,0,0,1,0,3.52,18.44,18.44,0,0,0,.12,4.2c.23.8,4.31,5,5.9,6.25s2.28-2.61,1.48-3.75-3.52-4-4.09-4.77-.68-4.2-.45-5.11,2.38.45,3.18,1.14a6.61,6.61,0,0,1,2,2.61c0,.45,5.57-2.61,5.8-5.91s2-7.15,2.16-8.06a2.42,2.42,0,0,0-1-2.16c-.45-.12.8-2.5,2.39-2.5s5.22-4.09,6.13-5.79a13.07,13.07,0,0,1,2.84-3.18,24.49,24.49,0,0,0,1.59-5.68c.23-1.59-.91-4.09-1-5a13.46,13.46,0,0,0-1.82-3.3,7,7,0,0,1-.45-3.29c.11-.34,1.59-.8,1.7-1.25s1.71-2,1.59-2.84.91,1,1.71,1.59,1.47,4.66,2.38,5,4.54-4.21,4.09-7.27,1-6.93,1.93-7.27,2.39-2.73,3.52-4.43a158.09,158.09,0,0,0-39-61.34h-.57l-1.36-.23c-2.27-.45-3.52-2.84-3.18-3.41a1.49,1.49,0,0,0,0-1c-1.25-1.14-2.5-2.27-3.86-3.3h-2.84a12.29,12.29,0,0,1-4.77-1.47c-.46-.46-2.28.45-2.39,1.47s-3.18,1.37-3.41,2.16a1.82,1.82,0,0,1-2.16.46c-.22-.46-3.18,1-4.54,1.13a21.37,21.37,0,0,0-4.66,1.59,7.07,7.07,0,0,0-2.38,2.39,7.36,7.36,0,0,1-2.62,1.82c-.56.22-.45,2.84.23,3.29s-1.36-.34-2.38-.79-1.94,1.13-2.28,1.7-1.13-.34-1.13-1.14-2.39-1.36-2.62-.79-1.93-.23-2.61-.57-3.63,2.73-4.77,3.86-6.36,1.93-7.27,1.59S232,57,232.76,57.25h-3.18a27.9,27.9,0,0,0-7.5,2.84,1.24,1.24,0,0,1-1.76-.15,1.21,1.21,0,0,1-.29-.64c0-.68-1.82-1.25-2.27-1.37s-1.59,3.53-2.5,4.21-2-2.84-4.31-3.52-5.68-2.73-6.71-3-3-2.27-3.52-2.95-3.41-1-4.31-1-3.87,1.7-4.66,2.27-1.93.45-2.39.79-3.75,3.41-5,4.43-3.52,5.34-4.2,6.48A2.74,2.74,0,0,1,178,66.91a2.14,2.14,0,0,0-.79,1.59c0,.45-3.75,2.38-4.2,4.09s.45,5.68.45,7,1.36,4.2,2.38,4.2.57,2.39.23,3.07.68,1.36.57,1.93-2.61,1.36-3.41,1.59A5.63,5.63,0,0,0,171,93.26c-.11.57-2.61,1-3.52,1.82a10.46,10.46,0,0,1,.68-1.82,3,3,0,0,0-.57-2.84c-.34-.34-.57-4.88-1.25-5.91a25.15,25.15,0,0,0-2.61-3c-.34-.34.23-1.48.57-2s-2.16-.8-2.73-.46-1,4.89-1.25,6.14a3.88,3.88,0,0,0,1.59,3.18c.46.11.23,2.27-.57,2.38s-1.59,3.3-1.13,4.09-.57,2.16-1,2.5,3.18.11,4.88.11a4.49,4.49,0,0,1,2.84.8c-.11.11-3.18.57-3.75,1.25s-2.61,2-3,2.61.68,1.71,1.47,1.71,1.82,3,2.5,3.52a2.5,2.5,0,0,1,.12,2.61c-.23.46-4.43-.23-5.91.11s-3.52,3.64-3.64,4.89a32.08,32.08,0,0,0,.46,5.79c.11,1,3.41,1.59,4.09,2s3.75,0,4.43.34,2.73-3.18,3.18-4.77,3.75-4.55,4.43-5.68,4.2-.91,5.11-1.48.46,2.73.8,4.54,3.86,1.59,3.29-.11.34-2.39.46-1.82,3.4,1.93,4.09,2.84.45,3-.23,3-.8,2.15,0,2.49,1.81-2.49,2.61-3,1.48-2.16,1.14-2.27.68-1.7,1.13-1.14a20,20,0,0,0-3.18-4.77c-1.47-1.47-.34-.79,2.16,1.37l1.82,2.49c.34.46.79,1.82,1.13,2.28l.46.68a18.43,18.43,0,0,1,.68,4,2.62,2.62,0,0,0,2.27,1.82,1.5,1.5,0,0,1,1.37.46c-.12.11.56,1.7,1.36,1.7s1.25-2.16.34-2.16-.68-3.18-.8-4.66.57-2.49.91-2.49,0,2.84,0,3.52a11.34,11.34,0,0,0,.8,2.84l.91.68,1.93,1.48c2.84-.8,6.7-.12,6.47.45s2,.68,2.16-.23.23.12.23.68-1.82,3.18-2.16,4.32-6.93.34-9.77.11-7,.69-7.27,1.59-4.66-1.93-6.7-2.72-3.64-3.86-4-4.32.34-1.36.12-2-4.78-.68-6.14-.23-8.29,1.25-9.88,1.93-4.09,0-4.89-.11-2.61,2.16-3.52,2.5-2,3.63-2.61,7.15l-1.25,2.39-.79,1.59c-2.28,1.7-4.77,7.5-5.57,8.75S145,156.31,145,159.15s2.38,8.74,3.18,10.45,4.88,5.22,6.36,6.13,6,1,7.5,1a4.44,4.44,0,0,0,3.75-3.18l2.15.23h1c0,1.25,3.29,2.16,4.09,2.61a6.29,6.29,0,0,0,3.52-.11c.56-.11,1.36,5.57.9,7.27s1.14,7.5,1.6,9.31,2.5,6.59,2.61,8.3-1.14,7.49-1.36,9.54,2.49,7.61,3.18,9.54a35.83,35.83,0,0,1,1.25,7c0,.91,2.95,6.82,3.63,9.2s9,3.53,11,2.39"/><path class="cls-2" d="M329.54,167.1c.11.45,2-1,3.18-1.25s1.82-3.18.91-3.41-1.93-2.61-2.61-2.84-1.82,1-1.82,1.93-2.05,1.25-2.5,2.05-.34,1.25,0,1.25a10.36,10.36,0,0,1,2.84,2.27"/><path class="cls-2" d="M327.27,183.8c.56-.23,0-3.18-1.25-3.41s-4.43,4-3.86,6.36,1.25,2.27,1.59,1.71,2.27.33,2.83.45.57-.34,0-1.25.12-3.64.69-3.86"/><path class="cls-2" d="M320.79,180.84c.12-1,.34-4.43.46-5.11s-1.82-2.61-2.84-2.95-4.09,6.47-6.37,7.72-3.06,5.46-2.49,6.37,5.33,1.47,6.13,2.15,1.7-.11,2.27-.22.34-.46.12-.57,1.59-2,1.93-3.3a31.42,31.42,0,0,0,.79-4.09"/><path class="cls-2" d="M307.84,192.32c-1.7-.69-3.86.34-4,1s6.81,1.82,9.2,2.38,3.75.8,3.29.46Z"/><path class="cls-2" d="M322.27,146.31c.57-.79-.8-4.43-1.48-3.63s-.11,2.95,0,3.74.91.69,1.48-.11"/><path class="cls-2" d="M326.36,154.26c.45-.91-.46-1.93-2.05-2.27s-1.25,4.2-.56,4.77,2.27-1.59,2.61-2.5"/><path class="cls-2" d="M334.42,182.66c1.82,1.25,5.91.68,6-1.7-1.82-1.25-6.14-1-6,1.7"/><path class="cls-2" d="M333.4,126.32a2.6,2.6,0,0,0-.91,2.38h-.34c-.57,0-.68,2.39,0,2.84s2.16-1.81,3-2.38a3.79,3.79,0,0,1,2.61-.68,7.91,7.91,0,0,0,3.07-.91,2.76,2.76,0,0,0,.9-1c-.34-1.71-.79-3.41-1.13-5.23l-2.05,1.48Z"/><path class="cls-2" d="M303,185.5a21,21,0,0,0-4.77-5.56l-.69-1.25-.79-1.37c-.68-1.47-2.95-2.61-3.18-3.07s-.91,1.25-1.7.8l2.38,1.7c2.05,1.48,6.13,11.82,7.16,12.5s2.27-2.27,1.59-3.75"/><path class="cls-2" d="M270.36,168.8c-.57,1.14,2.95,3.64,3.29,3.07a7.51,7.51,0,0,0-1-4c-.68-.68-1.59-.22-2.27.91"/><path class="cls-2" d="M222.65,223.78c.11,1.25,2.61,2.16,3.29,1.93s2.73-3.86,2.95-4.88a31.8,31.8,0,0,0,.57-3.86A5,5,0,0,1,230,215a7.65,7.65,0,0,0,1-2.73c.23-1.36-1.47-7.84-1.47-9s-1.25.56-1.59,1.7-3.53,3.52-4.32,4.43-1.48,4.2-1.14,4.77a7.25,7.25,0,0,1-.57,3.41c-.45.68.46,5,.69,6.13"/><path class="cls-2" d="M106.21,268.77h2.16c.23-2.39-2.27-2-2.16,0"/><path class="cls-2" d="M164.14,24.08a7.25,7.25,0,0,1-3.63-.79,8.65,8.65,0,0,0-4.88-.34c-1,.45-.35-2.5,1-2.73S156.88,18,155.4,18s-5.23-.57-6-.34a14.32,14.32,0,0,1-3.18-.69c-.57-.11-5.12,1.37-7.16,1.25a48.31,48.31,0,0,0-8.41.46c-1.13.23-1.93,2.5-1.7,3.29s-5,.8-6.59.8S112,24.54,109.73,25.79s-4,4.43-3.29,4.43-1.25,1.81-2.5,2.27-4.09.57-4.77,1.25.68,1.13.91,1.59,1-.34,1.81.11,3.3.57,4,.91-2.16.8-3.41.91-1,2.61,0,3.07,3.86.68,4.09.22,3.3.46,4.66.69,2.39,3.52,2.84,4.31.45,3.3.45,4.09,2.39,2,2.84,1.59.34,1.14-.68,1-.34,2.73.91,3.19.34,2.15-.34,2.72-.34,2.16-1,2.84,2.61,6.36,2.5,9.32,1.81,5.33,2.5,5.33,3.06.57,3.4,1.25,1.48-.45,1.93-.9a28.41,28.41,0,0,0,2.16-3.19c.8-1.25,2.39-7.15,2.62-7.83s3-.23,3.63-.57a28.61,28.61,0,0,0,3-2.16c.46-.45,4.43-2,5.57-2.84s2.84-4.09,3.75-4.88-.46-.46-1.48-1.14a1.14,1.14,0,0,1-.44-1.54,1.21,1.21,0,0,1,.21-.28c.23-.34,3.53.46,4.55.91s3.18-1,2.38-1.59-.34-.57,0-.34.8-1.93.46-2.39,3.18-3.06,2.61-5.56.91-5.11,1.93-5.11.68-2.84-.56-3.07,0-.45.45-.91A7.15,7.15,0,0,0,158,30.1c-.23-.45,1.82-1,2.16-1.59a9.69,9.69,0,0,1,3.52-1.82c.68-.34,1.25-2.61.45-2.61"/><path class="cls-2" d="M184.59,26.35c-1.13-.34-3.41.91-3.07,1.59s-1.81-.9-3.29-.11-1.93,3.41-1.25,3.75,1.14,2.38,1.14,2.84,2.84.11,3.63-.46.57,2-.11,2.85.23,2.15,1,2.27S184.48,41,185.39,41s2.27-3.18,2.5-4.32,3.06-.23,4.31.12,1.7-4.32.34-5.12-3.06-.34-3.63-.91a4.39,4.39,0,0,0-2.16-1.13c-.45-.11-1-2.95-2.16-3.3"/><path class="cls-2" d="M195.61,28.63a7.91,7.91,0,0,0,5.23-2.05c.56-.45-6.14-1.81-8.75-1.93s-4.54.23-4.54.8,5.9,2.84,8.06,3.18"/><path class="cls-2" d="M154.94,89c-.56-.23-.91,1.93-.79,2.72s2.16.8,3.06.57a1.81,1.81,0,0,0,1.48-1.59c0-.68-1.25-4-1.7-4s-1.48,2.5-2.05,2.28"/><path class="cls-2" d="M161.53,63.16c-.45-.8-3.86-.68-4.77-.68a12.21,12.21,0,0,1-4-1.48c-.57-.57-.8,2.16-1.59,2.5s.45.8.68.57,0,1.36-.46,1.93,2.27.91,2.62,1.82a2.27,2.27,0,0,0,2.38,1.25c1-.12,3.07-1.25,3.86-1.37s1.71-3.63,1.25-4.54"/><path class="cls-2" d="M235,43.17c1.13-1.14,6.13-2.84,6.7-4.09a1.58,1.58,0,0,0-.59-2.17.68.68,0,0,0-.21-.1,1.72,1.72,0,0,0-1.25.79c-.11.23-5.79,1.48-7.49,2.39a18.58,18.58,0,0,0-4.43,2.84c-.68.68-1.93,6.36-2.27,6.92s1.81,2.85,2.84,3.53a5.28,5.28,0,0,0,2.84.22c.45-.11-.46-4-1-5.34s3.75-3.74,4.89-5"/><path class="cls-2" d="M229,28.51c1.81,1.82,2.84-.79,4.88-.57,0-3.86-5.11-2.38-4.88.57"/><path class="cls-2" d="M265.24,29.31c0,.68,5.12,1.25,6.71.91s-.34-2.62-2.5-2.5-4.21.91-4.21,1.59"/><path class="cls-2" d="M76.22,67.93c-.57.45,0,3.07.91,3.07s2.73-3.87,4-3.07,2.16,1,1.93.68-3.86-1.93-4.32-2.27-1.93,1.14-2.5,1.59"/><path class="cls-2" d="M89.51,154.72c0,.45,2.28.34,2.62-.34s.11-1.25-.46-1.25a3.61,3.61,0,0,0-2.16,1.59"/><path class="cls-2" d="M79.4,151c1-.23.57,1.48.8,2.16s2.84,1.13,3.41,1.59,1.81-.8,2.84-.68-.35-3.64-2-3.53-3.07-1.59-3.52-1.81a19.32,19.32,0,0,1-2.95-1.82c-.57-.46-5-.8-6.48-.8a4.68,4.68,0,0,0-3.41,2c-.22.45,2.39.91,3.07.45s4.2.46,5,1.25A4.21,4.21,0,0,0,79.4,151"/><path class="cls-2" d="M74.63,154.72c0,.45,2.27.11,2.84.11s.57-.45,0-.79-2.84.22-2.84.68"/><path class="cls-2" d="M76.22,142.9c-.57-.22-1,.69-1,1.14a.79.79,0,0,0,.68.79c.46,0,1-1.7.34-1.93"/><path class="cls-2" d="M81.11,143.24a1.94,1.94,0,0,0-1.48-.79c-.34,0-.45.68-.45,1.7s2-.45,1.93-.91"/><path class="cls-2" d="M84.51,148.58c.91-.45,1-1.47.46-1.47s-1.59-1.59-2.16-1.82-1,1-1,1.48a.68.68,0,0,0,.56.78h.12c.45-.11,1.14,1.48,2,1"/><path class="cls-2" d="M341.35,184.71c-.45.22-2.72.45-3.06.11s-.69.91-1.25,1.14-.23,1.36.56,1,2.73.91,4.43,2c.35-1.7.69-3.52.91-5.34Z"/><path class="cls-2" d="M77.24,205c-.22.45,2.62,3.29,3.64,4.32a29.43,29.43,0,0,1,3.86,7.27,13,13,0,0,1,0,4.65,8.18,8.18,0,0,0,.57,2.39c.11.57-.91,5.11-.57,7s-2.16,7.61-2,10.57,1.36,6.59,1.81,6.36.69,2.61-.11,3-1.93,2.61-1.36,2.73,0,2.38.11,3.29.91,6.93,1,8.41,2.28,5.11,2.73,6.36.91,3.52,1,3.86l.34.8a10.3,10.3,0,0,1,2.27,1c.46.34,3.87.11,5-.12s.12-1.24-.34-1.7-.91-3.18-1.48-3.41-.79-3.63-.34-4.43,2.5-1.93,2.73-2.61.23-3.52-.23-4,.12-4-.22-5.79,3.06-3.41,3.29-4.77,4-2.95,4.77-3.63,1.59-4.77,1.14-5.57,1.36-1.59,2.16-1.59a12.12,12.12,0,0,0,2-.57c.23,0,1.25-1.82,1.7-2.16s1.59-4.65,2.5-5.34a7.67,7.67,0,0,0,1.71-4,10.56,10.56,0,0,1,1.93-3.64c.45-.68,4-2.27,4.65-2.5s1.59-5.9,1.82-7.95a46.71,46.71,0,0,1,1.37-5.45c0-.68,1.13-1.25,1.36-1.48s1-2.84,1.59-3.41,2.5-3.06,2.5-3.63a18.19,18.19,0,0,1,.68-3.18v-3.52c-.57-1.71-2.5-3.86-3-3.3s-2.62-1.47-3.75-1.93a18.89,18.89,0,0,0-4.55-.68c-.68,0-3.06-1.93-4.2-2.27a38.5,38.5,0,0,1-4.32-1.14c-.45-.34-1.13-4.43-3.4-5.79s-6.14-4.55-6.59-5.68-4.66-3.52-6-4.32-3.3-.91-3.52-.56-1.93-2.28-2.73-3-3.41-1.25-3.52-.68-1.82.23-2.16-.23-1.7.23-2.39.46S78,167,77,167.78s-2.16-.68-2.84-1a6.77,6.77,0,0,0-3.75,1c-.68.45-2.16-3.41-1.82-5.22s-1.59-5.34-3.18-5.46-1.93-3.86-1.71-5.22S61,149.6,60.2,149.49s-2.61,1.82-3,2.84-7.27-1.25-6.47-5.45,4.08-8.52,4.88-9,5.22-.68,6.25-.11a1.8,1.8,0,0,0,2-.23,13.92,13.92,0,0,1,4.89.46c1,.45,2.61,4.66,3.75,5.11s1.47-2.73,1.7-3.52a10.16,10.16,0,0,0-.8-3.3c-.22-.56,1.82-5.68,3.53-6.47s3.52-3.75,3.29-4.2,1.36-.91,1.7-1.14,0-4.32.57-5.23a19.77,19.77,0,0,1,4.89-3.18c1-.45,1.7-3,1.36-3.52s2.61-2.95,4.2-3.52,2.84.91,2.5,1,2.39-1.25,3.3-1.82,0-2.61-.69-3.18-.22-2.72.57-2.95a2.84,2.84,0,0,0,1.25-2.5c-.23-.34,3.41.34,4.77-.68s.34,2.39-.57,3.86a1.6,1.6,0,0,0,.4,2.22,1.65,1.65,0,0,0,1,.28,1.47,1.47,0,0,1,1.47,1.14c.12.34,1.48-.46,2.39,0s1.48-1.25,1.48-2-2.16-2.27-2.5-3.29a52.19,52.19,0,0,1-.46-7.39c0-1-1.47-2.84-1.93-2.49s-1.36-2.84-2.16-3.53a4,4,0,0,1-.9-2.72c0-.46-2.5-3.18-3.19-4.43s-1.47-1-1.59-.46-1.81.69-2.61.57-1.36-3-1.36-4-3.3-1.25-3.86-2.16-2.73-.46-3.07-1a3.6,3.6,0,0,0-2.61-.91c-.34.22-.23,8.06-.57,10.11s-2.16,4-2.84,3.86S81,88,81.33,87.92s-1.25,2.27-1.47,3.86-1.82,0-2-1.47-1.82-3.41-2.16-3-1.36-.56-1.81-.22-3.41-1.71-4.66-2.39-1.82-4.32-2.61-4.66-.12-.79-.12-1.36S68.84,76,69.52,75.2a55,55,0,0,1,4.32-5c1-.79,1.81-2.61,1.59-3s4.43-1.82,5.68-2.16,2.27-3.86,2.49-4.89a4.17,4.17,0,0,0-1.36-3.06c-.57-.23,1.71-.34,2.5.11s3.07-.68,4.09-.23l4.2,2.5L92.8,62l-.56,4.32c-3.64,1.47-4.66,4.09-3.41,4s7,2.5,8.63,3.64,2.16-1.71,2.62-2.61a7.72,7.72,0,0,0,0-4.21c-.46-.56,1.81-.34,2.49.23s1.37-.57,1.82-.91.68-2.61,1-3.06-1-.91-1.13-1.6-2.61-1.7-3.41-2.15a2.05,2.05,0,0,1-.57-2.5c.34-.34-.22-2.62-.68-3.3s-3.07-1.36-4-1.36-1.81-2-2.38-2.38a16.38,16.38,0,0,0-4.88-.46c-.8.23-2.39-2.5-3.87-1.59s-3-.91-3.63-1.36-4.09,3.29-4,5.79,1.25,5,1.82,5.11S78.61,60,78,60.66,76,60,76.56,59.41s-1.48-3.29-2.16-4.32-2.27-1.47-3.4-1.93l-2,2.27a5.84,5.84,0,0,1,.23,3.07c-.46,1.59-1.82,1.82-1.82,1.14a1.91,1.91,0,0,0-1.48-.57l-2,2.61-2.05,2.61-2,2.84-1.82,2.5-2.61,3.86-2.39,3.75c-.68,1-1.25,2.16-1.93,3.3a12.84,12.84,0,0,0-1.25,2.27l-1.93,3.52-1,2c-1.36,2.72-2.73,5.56-4,8.52v.22l-1.7,4.32L40.44,103l-1.59,4.43-.23.68a154.39,154.39,0,0,0-4.43,15.34c-.11.34-.11.68-.23,1a156.93,156.93,0,0,0-2.84,16.7,7.42,7.42,0,0,1,1.82,2.61c.46,1.36,2.84,2.27,3.29,2.61s.57-2.61.23-3.4.57-1.14.57-.69,2.27,3.07,2.95,4.09,1.48,6.93,2.28,8.18,7.61,4,9.88,4.43a12.48,12.48,0,0,1,5.45,3.64c.45.68,3.41,1,4,1.36a30.47,30.47,0,0,1,2.72,2.73,4,4,0,0,1,1.14,1.93c0,.34,3.86,1.81,4.88,2.84a2.39,2.39,0,0,0,2.84.34c.23-.46,1,2,1.48,2.95s.45,3,.11,3.3-.79,4.2-1.47,5-2,6.48-1.71,7.62a8.36,8.36,0,0,0,3,3.74.92.92,0,0,1,.27,1.26.89.89,0,0,1-.39.33c-.57,0-.34,5.57,1.14,6.37s1.93,2.27,1.7,2.61"/><path class="cls-2" d="M85,42.14c1.82-.34,5-.9,5.23-1.36a4.93,4.93,0,0,0-.12-2.16H91c.68,0,1.93-3.86,2.61-4.77s5-2.27,6-2.84,3.3-2.72,4.09-3.07,2.16-2.27,1.93-2.61,3-2.27,4.09-2.72,1.82-1.82,1.37-1.94-6.82,3.41-12.84,6.82h-.11L93,31.13l-3.29,2.61L88,35.1l-3.87,3.3-.79.68-4.2,3.75Z"/><path class="cls-2" d="M185.05,119.28c-.69,0-.8,2.15,0,2.49s1.25-1.25,1.93-2.15v-8.75h-.12c-.9-.91-.79-.91.12-.23V56.46l-2,1.81c-1.25,1-3.52,5.34-4.2,6.48A2.73,2.73,0,0,1,178.57,66a2.14,2.14,0,0,0-.79,1.59c0,.45-3.75,2.39-4.21,4.09s.46,5.68.46,7,1.36,4.2,2.38,4.2.57,2.39.23,3.07.68,1.37.57,1.93-2.62,1.37-3.41,1.59a5.63,5.63,0,0,0-2.27,2.84c-.11.57-2.61,1-3.52,1.82s.57-1.36.68-1.82a3.07,3.07,0,0,0-.57-2.84c-.34-.34-.57-4.88-1.25-5.9a25.35,25.35,0,0,0-2.61-3c-.46-.34.22-1.47.57-2s-2.16-.8-2.73-.46-1,4.89-1.25,6.14a3.85,3.85,0,0,0,1.59,3.18c.46.11.23,2.27-.57,2.38s-1.59,3.3-1.13,4.09-.57,2.16-1,2.5,3.19.12,4.89.12a4.42,4.42,0,0,1,2.84.79c-.11.11-3.18.57-3.75,1.25s-2.61,2.05-2.95,2.61.68,1.71,1.47,1.71,1.82,3,2.5,3.52a2.5,2.5,0,0,1,.12,2.61c-.23.46-4.43-.22-5.91.12s-3.52,3.63-3.64,4.88a32.08,32.08,0,0,0,.46,5.79c.11.91,3.41,1.59,4.09,2s3.75,0,4.43.34,2.72-3.18,3.18-4.77,3.75-4.55,4.43-5.68,4.2-.91,5.11-1.48.46,2.73.8,4.54,3.86,1.6,3.29-.11.34-2.38.45-1.82,3.41,1.93,4.09,2.84.12,3.53-.56,3.53"/><path class="cls-2" d="M187,130.07a8.88,8.88,0,0,0-1.71-.8c-2-.79-3.63-3.86-4-4.32s.34-1.36.11-2-4.77-.68-6.13-.23-8.3,1.25-9.89,1.93-4.08,0-4.88-.11-2.61,2.16-3.52,2.5-2.05,3.63-2.61,7.16l-1.25,2.38-.8,1.59c-2.27,1.71-4.77,7.5-5.57,8.75s-1.36,9.54-1.36,12.38,2.39,8.75,3.18,10.45,4.89,5.23,6.36,6.13,6,1,7.5,1a4.43,4.43,0,0,0,3.75-3.18l2.16.22h1c0,1.25,3.29,2.16,4.09,2.62a6.21,6.21,0,0,0,3.52-.12c.57-.11,1.36,5.57.91,7.27s1.14,7.5,1.59,9.32,2.5,6.59,2.61,8.29-1.13,7.5-1.36,9.54,2.5,7.61,3.18,9.54a35.08,35.08,0,0,1,1.25,7,21.65,21.65,0,0,0,1.59,4.09V129.84Z"/><path class="cls-2" d="M106.21,268.77h2.16c.23-2.39-2.27-2-2.16,0"/><path class="cls-2" d="M149.83,52.59c1.14.46,3.18-1,2.39-1.59s-.34-.56,0-.34.79-1.93.45-2.38,3.18-3.07,2.62-5.57,1-5.11,1.93-5.11.68-2.84-.57-3.07,0-.45.45-.9a7.07,7.07,0,0,0,.68-3.41c-.22-.46,1.82-1,2.16-1.59a8.78,8.78,0,0,1,3.52-1.82c.91-.12,1.25-2.39.46-2.27a7.3,7.3,0,0,1-3.64-.8c-.45-.45-3.86-.79-4.88-.45s-.34-2.5,1-2.73.23-2.27-1.25-2.27-5.23-.57-6-.34a15,15,0,0,1-3.18-.68c-.57-.12-5.11,1.36-7.16,1.25a47.19,47.19,0,0,0-8.4.45c-1.14.23-1.93,2.5-1.71,3.29s-5,.8-6.59.8-10.33,1.82-12.61,3.07-4,4.43-3.29,4.43-1.25,1.82-2.5,2.27-4.09.57-4.77,1.25.68,1.13.91,1.59,1-.46,1.82,0,3.29.57,4,.91-2.16.79-3.4.91-1,2.61,0,3.06,3.86.69,4.08.23,3.3.45,4.66.68,2.39,3.52,2.84,4.32.46,3.29.46,4.09,2.38,2,2.84,1.59.34,1.13-.69,1-.34,2.73.91,3.18.34,2.16-.34,2.73-.34,2.16-1,2.84,2.61,6.36,2.5,9.31,1.82,5.34,2.5,5.34,3.07.57,3.41,1.25,1.47-.45,1.93-.91A30,30,0,0,0,128.48,73c.79-1.25,2.38-7.16,2.61-7.84s2.95-.22,3.63-.56a29.87,29.87,0,0,0,3-2.16c.45-.46,4.43-2,5.56-2.84s2.84-4.09,3.75-4.89-.45-.45-1.48-1.13a1.14,1.14,0,0,1-.43-1.55.9.9,0,0,1,.21-.27c.22-.46,3.52.34,4.54.79"/><path class="cls-2" d="M184.59,26.35c-1.13-.34-3.41.91-3.07,1.59s-1.81-.9-3.29-.11-1.93,3.41-1.25,3.75,1.14,2.38,1.14,2.84,2.84.11,3.63-.46.57,2-.11,2.85.23,2.15,1,2.27S184.48,41,185.39,41a2.72,2.72,0,0,0,1.47-1.71V29.53c-.56,0-1.13-2.83-2.27-3.18"/><path class="cls-2" d="M157.33,92.24a1.83,1.83,0,0,0,1.48-1.59c0-.68-1.25-4-1.71-4s-1.36,2.39-2,2.16-.91,1.93-.8,2.73,2.05.91,3.07.68"/><path class="cls-2" d="M154.15,67.82a2.27,2.27,0,0,0,2.38,1.25c1-.12,3.07-1.25,3.87-1.37s1.47-3.75,1-4.54-3.86-.68-4.77-.68a12.35,12.35,0,0,1-4-1.48c-.57-.57-.79,2.16-1.59,2.5s.34.79.68.57,0,1.36-.45,1.93,2.61,1.13,2.84,1.82"/><path class="cls-2" d="M76.22,67.93c-.57.45,0,3.07.91,3.07s2.73-3.87,4-3.07,2.16,1,1.93.68-3.86-1.93-4.32-2.27-1.93,1.14-2.5,1.59"/><path class="cls-2" d="M89.51,154.72c0,.45,2.28.34,2.62-.34s.11-1.25-.46-1.25a3.61,3.61,0,0,0-2.16,1.59"/><path class="cls-2" d="M79.4,151c1-.23.57,1.48.8,2.16s2.84,1.13,3.41,1.59,1.81-.8,2.84-.68-.35-3.64-2-3.53-3.07-1.59-3.52-1.81a19.32,19.32,0,0,1-2.95-1.82c-.57-.46-5-.8-6.48-.8a4.68,4.68,0,0,0-3.41,2c-.22.45,2.39.91,3.07.45s4.2.46,5,1.25A4.21,4.21,0,0,0,79.4,151"/><path class="cls-2" d="M74.63,154.72c0,.45,2.27.11,2.84.11s.57-.45,0-.79-2.84.22-2.84.68"/><path class="cls-2" d="M76.22,142.9c-.57-.22-1,.69-1,1.14a.79.79,0,0,0,.68.79c.46,0,1-1.7.34-1.93"/><path class="cls-2" d="M81.11,143.24a1.94,1.94,0,0,0-1.48-.79c-.34,0-.45.68-.45,1.7s2-.45,1.93-.91"/><path class="cls-2" d="M84.51,148.58c.91-.45,1-1.47.46-1.47s-1.59-1.59-2.16-1.82-1,1-1,1.48a.68.68,0,0,0,.56.78h.12c.45-.11,1.14,1.48,2,1"/><path class="cls-3" d="M90.19,39c-.11-.11-.79.34-.45.57a.36.36,0,0,0,.45-.57"/><path class="cls-3" d="M107.69,91.1c-.12-.11-.8.34-.57.57s.91-.23.57-.57"/><path class="cls-4" d="M107,45.89H19.2A19.2,19.2,0,0,0,0,65.09V275.58a19.2,19.2,0,0,0,19.2,19.2H107a19.2,19.2,0,0,0,19.19-19.2V65.2a19.08,19.08,0,0,0-18.85-19.31H107"/><path class="cls-5" d="M46.46,60.89H79.63a1.7,1.7,0,0,1,1.7,1.7,1.58,1.58,0,0,1-1.46,1.7H46.46a1.7,1.7,0,0,1,0-3.4"/><path class="cls-5" d="M63,280.69a11.13,11.13,0,1,1,11.14-11.13A11.25,11.25,0,0,1,63,280.69"/><rect class="cls-5" x="8.18" y="83.83" width="109.62" height="162.32"/><path class="cls-6" d="M63,261.84a7.83,7.83,0,0,0-7.72,7.72A7.73,7.73,0,1,0,63,261.84"/><rect class="cls-5" x="11.04" y="119.52" width="102.98" height="52.95"/><rect class="cls-7" x="11.04" y="119.52" width="102.98" height="52.95"/><rect class="cls-8" x="41.12" y="99.85" width="70.09" height="6.93"/><path class="cls-8" d="M32.71,103.37a9.09,9.09,0,1,1-9.08-9.09,9.08,9.08,0,0,1,9.08,9.09"/><rect class="cls-8" x="14.54" y="203.22" width="97.01" height="2.85"/><rect class="cls-8" x="14.54" y="213.1" width="97.01" height="2.85"/><rect class="cls-8" x="14.54" y="222.87" width="97.01" height="2.85"/><rect class="cls-8" x="14.54" y="232.64" width="70.43" height="2.85"/><rect class="cls-8" x="14.54" y="184.25" width="64.52" height="6.93"/><path class="cls-9" d="M30.45,145.71a1.23,1.23,0,0,1-.41,1.07,1.76,1.76,0,0,1-1,.2,1.22,1.22,0,0,1-.63-.26c-.08-.06-.19-.15-.32-.27l-9.67-8.22v8a.65.65,0,0,1-.74.73h-.61a.64.64,0,0,1-.72-.73V136.3a.56.56,0,0,1,.14-.38,1.44,1.44,0,0,1,.39-.31.93.93,0,0,1,.25-.1,1,1,0,0,1,.28,0,2,2,0,0,1,.95.3c.11.07.25.17.43.31l9.55,8.12v-7.91a.64.64,0,0,1,.73-.73h.6a.65.65,0,0,1,.74.73Z"/><path class="cls-9" d="M45.2,142.61a1,1,0,0,1-.14.56.44.44,0,0,1-.41.25H34.87c0,1.23.85,1.84,2.55,1.84h1.47a.65.65,0,0,1,.73.74v.18a.64.64,0,0,1-.73.73H37.64a10.44,10.44,0,0,1-2.27-.21,4,4,0,0,1-1.44-.61,2.52,2.52,0,0,1-1.09-2v-3.28a2.32,2.32,0,0,1,1.27-2.07,6.64,6.64,0,0,1,3.45-.76h3.67a5.58,5.58,0,0,1,2.76.61,2.06,2.06,0,0,1,1.21,1.87Zm-1.91-.89v-1.1c0-.25-.26-.48-.79-.68a5.25,5.25,0,0,0-1.87-.29H37.78a7.25,7.25,0,0,0-2.07.24c-.6.18-.9.45-.9.8v1Z"/><path class="cls-9" d="M47.53,139.7a.66.66,0,0,1-.74-.74v-.18a.65.65,0,0,1,.74-.73h.69v-1.76a.64.64,0,0,1,.72-.72h.52a.64.64,0,0,1,.72.72v1.76H53.3a.65.65,0,0,1,.74.73V139a.66.66,0,0,1-.74.74H50.18v6.48a.64.64,0,0,1-.72.73h-.52a.64.64,0,0,1-.72-.73V139.7Z"/><path class="cls-9" d="M55.89,139.7a.65.65,0,0,1-.73-.74v-.18a.64.64,0,0,1,.73-.73h.69v-1.76a.64.64,0,0,1,.73-.72h.51a.64.64,0,0,1,.73.72v1.76h3.12a.64.64,0,0,1,.73.73V139a.65.65,0,0,1-.73.74H58.55v6.48a.64.64,0,0,1-.73.73h-.51a.64.64,0,0,1-.73-.73V139.7Z"/><path class="cls-9" d="M77,144.11a2.86,2.86,0,0,1-.31,1.46,2.41,2.41,0,0,1-1.42,1,11.39,11.39,0,0,1-3.24.36H64.89a.64.64,0,0,1-.72-.73V146a.65.65,0,0,1,.72-.74h7.17a5.72,5.72,0,0,0,2.33-.34.81.81,0,0,0,.57-.73v-1a.91.91,0,0,0-.72-.87,6.45,6.45,0,0,0-2.15-.27H69.35a8.53,8.53,0,0,1-4-.72,2.15,2.15,0,0,1-1.23-2v-.85a2.35,2.35,0,0,1,1-2.1,7.49,7.49,0,0,1,4-.79h1a.65.65,0,0,1,.74.73v.23a.66.66,0,0,1-.74.74H69.12a6.5,6.5,0,0,0-2.08.26c-.55.19-.83.5-.83.92v.79c0,.39.25.66.73.81a8.39,8.39,0,0,0,2.38.23h2.77a7.33,7.33,0,0,1,3.64.76,2.3,2.3,0,0,1,1.3,2.05Z"/><path class="cls-9" d="M81.64,137.5a.89.89,0,0,1-.37.74,1.56,1.56,0,0,1-1.77,0,.87.87,0,0,1-.42-.75.84.84,0,0,1,.39-.73,1.53,1.53,0,0,1,.91-.28,1.45,1.45,0,0,1,.89.28.85.85,0,0,1,.37.73m-.27,8.68a.65.65,0,0,1-.74.73h-.49a.64.64,0,0,1-.73-.73v-6.76a.64.64,0,0,1,.73-.72h.49a.65.65,0,0,1,.74.72Z"/><path class="cls-9" d="M96.45,144.17A2.23,2.23,0,0,1,95.28,146a6.53,6.53,0,0,1-3.64.89h-3a6.87,6.87,0,0,1-3.74-.79,2,2,0,0,1-1-1.73l0-3.56a2.23,2.23,0,0,1,1.07-2,6.48,6.48,0,0,1,3.58-.79h5.87V136.3a.64.64,0,0,1,.73-.73h.5a.65.65,0,0,1,.74.73Zm-2,0v-4.42H88.56a5.25,5.25,0,0,0-2,.28.92.92,0,0,0-.62.88V144a1,1,0,0,0,.6,1,6.22,6.22,0,0,0,2.09.24h2.83a6.56,6.56,0,0,0,2.27-.3c.52-.2.77-.47.77-.83"/><path class="cls-9" d="M111,142.61a1,1,0,0,1-.14.56.43.43,0,0,1-.4.25h-9.79c0,1.23.85,1.84,2.55,1.84h1.47a.65.65,0,0,1,.73.74v.18a.64.64,0,0,1-.73.73h-1.25a10.44,10.44,0,0,1-2.27-.21,4,4,0,0,1-1.44-.61,2.52,2.52,0,0,1-1.09-2v-3.28a2.34,2.34,0,0,1,1.27-2.07,6.64,6.64,0,0,1,3.45-.76h3.68a5.57,5.57,0,0,1,2.75.61,2.06,2.06,0,0,1,1.21,1.87Zm-1.91-.89v-1.1c0-.25-.26-.48-.79-.68a5.25,5.25,0,0,0-1.87-.29h-2.85a7.25,7.25,0,0,0-2.07.24c-.6.18-.9.45-.9.8v1Z"/><polygon class="cls-10" points="15.65 151.45 15.76 150.95 19.06 149.59 18.94 150.16 16.2 151.24 18.46 152.3 18.35 152.81 15.65 151.45"/><polygon class="cls-10" points="23.03 148.15 19.16 154.86 18.59 154.86 22.46 148.15 23.03 148.15"/><polygon class="cls-10" points="26.1 150.95 25.99 151.45 22.68 152.81 22.81 152.24 25.55 151.16 23.29 150.1 23.4 149.59 26.1 150.95"/><path class="cls-10" d="M31.29,148.39h1.14l0,.18-.2.06a.38.38,0,0,0-.11.11A1,1,0,0,0,32,149c0,.11-.08.27-.13.5l-.61,2.8c0,.14-.05.25-.06.34a1.8,1.8,0,0,0,0,.22.29.29,0,0,0,.08.23.58.58,0,0,0,.27.08l0,.18H30l0-.18a.52.52,0,0,0,.21-.07.47.47,0,0,0,.11-.13,1,1,0,0,0,.09-.21,5,5,0,0,0,.12-.49l.48-2.17c.06-.28.14-.59.24-.92h0l-.21.38c-.07.11-.17.29-.31.51l-1.63,2.71h-.4L28.39,150l-.1-1h-.07c-.09.61-.19,1.12-.28,1.53l-.34,1.58c0,.18-.07.31-.08.4a2.29,2.29,0,0,0,0,.25.29.29,0,0,0,.08.23.54.54,0,0,0,.27.08l0,.18H26.55l0-.18a.52.52,0,0,0,.21-.07.47.47,0,0,0,.11-.13,2.2,2.2,0,0,0,.09-.21c0-.09.06-.25.12-.49l.61-2.77.06-.3a2.46,2.46,0,0,0,0-.28.3.3,0,0,0-.09-.24.43.43,0,0,0-.26-.07l0-.18h1.28l.41,3.49Z"/><path class="cls-10" d="M32.8,149.86h1.14l-.46,1.84-.09.4a2.38,2.38,0,0,0,0,.36.6.6,0,0,0,.08.37.32.32,0,0,0,.28.11.61.61,0,0,0,.33-.12,1.86,1.86,0,0,0,.39-.37,2.75,2.75,0,0,0,.31-.48,2.27,2.27,0,0,0,.19-.54l.32-1.57h.63l-.55,2.46c0,.07,0,.15-.05.26a1.48,1.48,0,0,0,0,.26.23.23,0,0,0,.09.21.53.53,0,0,0,.31.08l0,.18h-1l.23-.91h0a3.1,3.1,0,0,1-.67.74,1.12,1.12,0,0,1-.66.24.69.69,0,0,1-.53-.2.81.81,0,0,1-.18-.57,2.5,2.5,0,0,1,0-.25,1.88,1.88,0,0,1,.06-.31l.3-1.28c0-.1,0-.19,0-.25a.92.92,0,0,0,0-.16.25.25,0,0,0-.09-.22.51.51,0,0,0-.3-.09Z"/><path class="cls-10" d="M38,148.15h.21l-.93,4.26a1.14,1.14,0,0,0,0,.26.86.86,0,0,0,0,.15.4.4,0,0,0,0,.17.2.2,0,0,0,.11.09,1,1,0,0,0,.25,0l0,.18H36.48l.93-4.14c0-.1,0-.18.05-.24a.77.77,0,0,0,0-.15.57.57,0,0,0,0-.12.35.35,0,0,0,0-.17.36.36,0,0,0-.12-.08.72.72,0,0,0-.26,0l0-.19Z"/><path class="cls-10" d="M40.6,152.64a2.58,2.58,0,0,1-.58.54,1.15,1.15,0,0,1-.61.19.74.74,0,0,1-.57-.2.77.77,0,0,1-.19-.57,2.34,2.34,0,0,1,.06-.5l.45-1.87h-.54l0-.19A.77.77,0,0,0,39,150a.6.6,0,0,0,.21-.18,1.39,1.39,0,0,0,.16-.28l.18-.52H40l-.2.89H41l-.08.37H39.76l-.34,1.4a3.73,3.73,0,0,0-.15.87.48.48,0,0,0,.1.33.32.32,0,0,0,.28.11.61.61,0,0,0,.34-.12,2.06,2.06,0,0,0,.4-.39Z"/><path class="cls-10" d="M41.84,152.41c0,.12,0,.21-.05.27s0,.1,0,.14a.29.29,0,0,0,0,.17.2.2,0,0,0,.11.09.89.89,0,0,0,.25,0l0,.18H41l.54-2.43a2.2,2.2,0,0,0,.07-.33c0-.09,0-.16,0-.21a.35.35,0,0,0,0-.16.2.2,0,0,0-.11-.09.89.89,0,0,0-.24,0l0-.19.88,0h.22Zm.89-4-.16.7h-.64l.17-.7Z"/><path class="cls-10" d="M45.09,150.7a.75.75,0,0,0-.18-.47.65.65,0,0,0-.45-.14.75.75,0,0,0-.31.06.55.55,0,0,0-.22.18.54.54,0,0,0-.07.29.49.49,0,0,0,0,.24,1.12,1.12,0,0,0,.18.23,3.35,3.35,0,0,0,.36.27,1.69,1.69,0,0,1,.49.46.92.92,0,0,1,.14.5.93.93,0,0,1-.61.93,1.54,1.54,0,0,1-.63.12,3.61,3.61,0,0,1-.59-.05,4.71,4.71,0,0,1-.54-.12l.17-.78h.28a.79.79,0,0,0,.19.5.65.65,0,0,0,.48.16.72.72,0,0,0,.5-.16.54.54,0,0,0,.18-.42.78.78,0,0,0,0-.28.91.91,0,0,0-.17-.23,2.72,2.72,0,0,0-.33-.26,3.19,3.19,0,0,1-.37-.29,1.29,1.29,0,0,1-.22-.3.87.87,0,0,1-.07-.37.87.87,0,0,1,.56-.85,1.62,1.62,0,0,1,.64-.11,3.32,3.32,0,0,1,1,.15l-.17.74Z"/><path class="cls-10" d="M48.47,152.59a2.93,2.93,0,0,1-.51.46,1.7,1.7,0,0,1-.49.24,1.92,1.92,0,0,1-.55.08,1.17,1.17,0,0,1-.48-.1.9.9,0,0,1-.35-.25,1.15,1.15,0,0,1-.2-.38,1.86,1.86,0,0,1-.06-.48,2.89,2.89,0,0,1,.14-.83,2.31,2.31,0,0,1,.42-.79,2,2,0,0,1,.67-.55,2,2,0,0,1,.84-.19,1,1,0,0,1,.65.18.66.66,0,0,1,.22.55,1,1,0,0,1-.57.92,3.85,3.85,0,0,1-1.71.3,2.35,2.35,0,0,0,0,.47.87.87,0,0,0,.14.55.6.6,0,0,0,.49.17,1.21,1.21,0,0,0,.6-.14,2.33,2.33,0,0,0,.56-.44Zm-1.92-1.14a4.66,4.66,0,0,0,.58,0,2.15,2.15,0,0,0,.43-.09,1.05,1.05,0,0,0,.3-.15.66.66,0,0,0,.19-.18.51.51,0,0,0,.1-.21.85.85,0,0,0,0-.23.51.51,0,0,0-.11-.34.38.38,0,0,0-.3-.12.85.85,0,0,0-.5.18,1.74,1.74,0,0,0-.43.49,2.7,2.7,0,0,0-.29.69"/><path class="cls-10" d="M50.34,149.83h.22l-.26.89h.05A3,3,0,0,1,51,150a1.14,1.14,0,0,1,.67-.22,2.76,2.76,0,0,1,.44,0l-.17.81h-.38a.52.52,0,0,0-.09-.28.2.2,0,0,0-.19-.1.58.58,0,0,0-.32.14,2.47,2.47,0,0,0-.38.4,2.41,2.41,0,0,0-.28.47,2,2,0,0,0-.15.47l-.33,1.56h-.62l.55-2.46a2.57,2.57,0,0,0,.07-.52.35.35,0,0,0,0-.16.27.27,0,0,0-.1-.08,1,1,0,0,0-.25,0l0-.19Z"/><path class="cls-10" d="M55.39,149.86l.09.18c-.09.22-.15.38-.2.48l-.19.39-.27.48c-.1.18-.21.36-.34.55s-.27.41-.44.64-.35.5-.57.79H53l-.33-2.72a2.39,2.39,0,0,0-.07-.38.45.45,0,0,0-.11-.17.58.58,0,0,0-.23-.06l0-.18h.92l.28,2.87a12,12,0,0,0,.92-1.44,2.21,2.21,0,0,0,.3-.95.33.33,0,0,0-.07-.23.47.47,0,0,0-.25-.07l0-.18Z"/><path class="cls-10" d="M56.54,152.41c0,.12,0,.21,0,.27a.71.71,0,0,0,0,.14.29.29,0,0,0,0,.17.2.2,0,0,0,.11.09.89.89,0,0,0,.25,0l0,.18H55.73l.54-2.43c0-.14.06-.25.07-.33s0-.16,0-.21a.34.34,0,0,0,0-.16.18.18,0,0,0-.1-.09,1,1,0,0,0-.25,0l0-.19.88,0h.21Zm.89-4-.16.7h-.64l.16-.7Z"/><path class="cls-10" d="M60.06,150.73a1.68,1.68,0,0,0,0-.4.41.41,0,0,0-.12-.18.43.43,0,0,0-.24-.06.89.89,0,0,0-.66.29,2.06,2.06,0,0,0-.47.82,3.16,3.16,0,0,0-.19,1,1.27,1.27,0,0,0,0,.28.69.69,0,0,0,.09.23.55.55,0,0,0,.18.16.59.59,0,0,0,.28.05,1.26,1.26,0,0,0,.57-.12,1.85,1.85,0,0,0,.5-.39l.22.22a2.39,2.39,0,0,1-.68.55,1.68,1.68,0,0,1-.74.17,1,1,0,0,1-.79-.31,1.34,1.34,0,0,1-.27-.9,3.07,3.07,0,0,1,.14-.85,2.59,2.59,0,0,1,.42-.81,1.79,1.79,0,0,1,1.45-.69,3.73,3.73,0,0,1,.5,0l.38.07-.18.82Z"/><path class="cls-10" d="M61.74,152.41c0,.12,0,.21-.05.27a.71.71,0,0,0,0,.14.4.4,0,0,0,0,.17.27.27,0,0,0,.12.09.89.89,0,0,0,.24,0l0,.18H60.92l.55-2.43q0-.21.06-.33c0-.09,0-.16,0-.21a.35.35,0,0,0,0-.16.18.18,0,0,0-.1-.09,1,1,0,0,0-.25,0l0-.19.88,0h.21Zm.89-4-.17.7h-.63l.16-.7Z"/><path class="cls-10" d="M64.08,153.37a1.17,1.17,0,0,1-.86-.31,1.23,1.23,0,0,1-.31-.91,3.37,3.37,0,0,1,.05-.5,2.79,2.79,0,0,1,.2-.67,2.21,2.21,0,0,1,.41-.63,1.7,1.7,0,0,1,1.3-.54,1.4,1.4,0,0,1,.68.15,1,1,0,0,1,.38.43,1.61,1.61,0,0,1,.12.63,2.91,2.91,0,0,1-.09.69,2.84,2.84,0,0,1-.38.9,1.69,1.69,0,0,1-.62.57,2,2,0,0,1-.88.19m-.54-1.06a.86.86,0,0,0,.16.58.62.62,0,0,0,.5.19.83.83,0,0,0,.63-.31,2.38,2.38,0,0,0,.43-.89,4.11,4.11,0,0,0,.16-1,1,1,0,0,0-.15-.59.57.57,0,0,0-.48-.2.85.85,0,0,0-.65.32,2.24,2.24,0,0,0-.44.89,3.8,3.8,0,0,0-.16,1"/><path class="cls-10" d="M68.73,150.7a.82.82,0,0,0-.19-.47.64.64,0,0,0-.45-.14.73.73,0,0,0-.3.06.44.44,0,0,0-.22.18.55.55,0,0,0-.08.29.64.64,0,0,0,.05.24.92.92,0,0,0,.19.23,2.39,2.39,0,0,0,.35.27,1.57,1.57,0,0,1,.49.46.84.84,0,0,1,.14.5,1,1,0,0,1-.16.58,1,1,0,0,1-.44.35,1.62,1.62,0,0,1-.64.12,3.7,3.7,0,0,1-.59-.05,4.54,4.54,0,0,1-.53-.12l.17-.78h.28a.74.74,0,0,0,.19.5.62.62,0,0,0,.47.16.7.7,0,0,0,.5-.16.55.55,0,0,0,.19-.42.61.61,0,0,0-.06-.28.72.72,0,0,0-.17-.23,2.11,2.11,0,0,0-.33-.26,2.37,2.37,0,0,1-.36-.29.89.89,0,0,1-.22-.3.92.92,0,0,1,.07-.88,1,1,0,0,1,.42-.34,1.54,1.54,0,0,1,.63-.11,3.32,3.32,0,0,1,1.05.15l-.16.74Z"/><path class="cls-10" d="M73.36,153.31H71.84l0-.18a.71.71,0,0,0,.21,0,.34.34,0,0,0,.12-.12,1,1,0,0,0,.11-.23,4.68,4.68,0,0,0,.12-.5l.77-3.52h-.45a.9.9,0,0,0-.36.06.73.73,0,0,0-.27.24,4,4,0,0,0-.32.59h-.35l.27-1.21H75.5l-.29,1.27h-.34c0-.24,0-.41,0-.53a.58.58,0,0,0-.07-.26.26.26,0,0,0-.12-.13.79.79,0,0,0-.26,0h-.54l-.78,3.55a1.31,1.31,0,0,0,0,.22,1.1,1.1,0,0,0,0,.18.92.92,0,0,0,0,.16.45.45,0,0,0,0,.18.24.24,0,0,0,.11.09,1,1,0,0,0,.25,0Z"/><path class="cls-10" d="M77.46,152.59a2.93,2.93,0,0,1-.51.46,1.59,1.59,0,0,1-.49.24,1.91,1.91,0,0,1-.54.08,1.19,1.19,0,0,1-.49-.1.86.86,0,0,1-.34-.25,1,1,0,0,1-.2-.38,1.51,1.51,0,0,1-.07-.48,2.89,2.89,0,0,1,.14-.83,2.31,2.31,0,0,1,.42-.79,2,2,0,0,1,.67-.55,2,2,0,0,1,.84-.19,1,1,0,0,1,.65.18.66.66,0,0,1,.22.55,1,1,0,0,1-.57.92,3.82,3.82,0,0,1-1.71.3,2.35,2.35,0,0,0,0,.47.8.8,0,0,0,.15.55.57.57,0,0,0,.48.17,1.21,1.21,0,0,0,.6-.14,2.58,2.58,0,0,0,.57-.44Zm-1.92-1.14a5,5,0,0,0,.59,0,2.31,2.31,0,0,0,.43-.09.87.87,0,0,0,.29-.15A.55.55,0,0,0,77,151a.51.51,0,0,0,.1-.21.85.85,0,0,0,0-.23.51.51,0,0,0-.11-.34.35.35,0,0,0-.3-.12.8.8,0,0,0-.49.18,1.48,1.48,0,0,0-.43.49,2.71,2.71,0,0,0-.3.69"/><path class="cls-10" d="M80.55,150.73a1.56,1.56,0,0,0,0-.4.29.29,0,0,0-.12-.18.43.43,0,0,0-.24-.06.87.87,0,0,0-.65.29,2.07,2.07,0,0,0-.48.82,3.14,3.14,0,0,0-.18,1,1.27,1.27,0,0,0,0,.28.43.43,0,0,0,.09.23.4.4,0,0,0,.18.16.54.54,0,0,0,.27.05,1.26,1.26,0,0,0,.57-.12,2,2,0,0,0,.51-.39l.22.22a2.53,2.53,0,0,1-.68.55,1.71,1.71,0,0,1-.74.17,1,1,0,0,1-.8-.31,1.34,1.34,0,0,1-.27-.9,2.77,2.77,0,0,1,.15-.85,2.23,2.23,0,0,1,.42-.81,1.71,1.71,0,0,1,.65-.52,1.75,1.75,0,0,1,.79-.17,3.63,3.63,0,0,1,.5,0l.38.07-.17.82Z"/><path class="cls-10" d="M84.49,153.31H83.36l.46-1.83c0-.12.05-.25.08-.39a1.82,1.82,0,0,0,0-.38.59.59,0,0,0-.09-.37.31.31,0,0,0-.27-.11.68.68,0,0,0-.33.11,1.94,1.94,0,0,0-.36.35,3.43,3.43,0,0,0-.33.48,2.45,2.45,0,0,0-.2.58L82,153.31h-.62l.55-2.46c0-.06,0-.14,0-.25a1,1,0,0,0,0-.27.25.25,0,0,0,0-.16.17.17,0,0,0-.1-.08,1,1,0,0,0-.25,0l0-.19.82,0h.21l-.25.94h0a3.33,3.33,0,0,1,.68-.74,1.1,1.1,0,0,1,.66-.23.69.69,0,0,1,.53.19.81.81,0,0,1,.18.57,1.41,1.41,0,0,1,0,.28,1.86,1.86,0,0,1-.05.27l-.3,1.29a1.91,1.91,0,0,0-.06.41.4.4,0,0,0,0,.17.24.24,0,0,0,.11.09,1,1,0,0,0,.25,0Z"/><path class="cls-10" d="M86.52,153.37a1.21,1.21,0,0,1-.87-.31,1.27,1.27,0,0,1-.31-.91,2.49,2.49,0,0,1,.06-.5,2.81,2.81,0,0,1,.19-.67,2,2,0,0,1,.42-.63,1.8,1.8,0,0,1,.58-.41,1.87,1.87,0,0,1,.71-.13A1.37,1.37,0,0,1,88,150a.93.93,0,0,1,.38.43,1.61,1.61,0,0,1,.12.63,2.91,2.91,0,0,1-.09.69,2.63,2.63,0,0,1-.38.9,1.61,1.61,0,0,1-.62.57,2,2,0,0,1-.87.19M86,152.31a.85.85,0,0,0,.17.58.6.6,0,0,0,.49.19.8.8,0,0,0,.63-.31,2.24,2.24,0,0,0,.43-.89,3.67,3.67,0,0,0,.16-1,1,1,0,0,0-.15-.59.56.56,0,0,0-.47-.2.87.87,0,0,0-.66.32,2.39,2.39,0,0,0-.44.89,4.25,4.25,0,0,0-.16,1"/><path class="cls-10" d="M90.6,148.15h.22l-.94,4.26a2.24,2.24,0,0,0,0,.26.86.86,0,0,0,0,.15.29.29,0,0,0,0,.17.2.2,0,0,0,.11.09.89.89,0,0,0,.25,0l0,.18H89.06l.93-4.14a1.73,1.73,0,0,0,.05-.24.77.77,0,0,0,0-.15.57.57,0,0,0,0-.12.27.27,0,0,0,0-.17.31.31,0,0,0-.11-.08.82.82,0,0,0-.27,0l0-.19Z"/><path class="cls-10" d="M92.23,153.37a1.18,1.18,0,0,1-.87-.31,1.23,1.23,0,0,1-.31-.91,2.49,2.49,0,0,1,.06-.5,2.81,2.81,0,0,1,.19-.67,2,2,0,0,1,.42-.63,1.8,1.8,0,0,1,.58-.41,1.87,1.87,0,0,1,.71-.13,1.4,1.4,0,0,1,.68.15,1,1,0,0,1,.38.43,1.61,1.61,0,0,1,.12.63,3.11,3.11,0,0,1-.47,1.59,1.61,1.61,0,0,1-.62.57,2,2,0,0,1-.87.19m-.55-1.06a.9.9,0,0,0,.17.59.63.63,0,0,0,.49.18.8.8,0,0,0,.63-.31,2.38,2.38,0,0,0,.43-.89,3.67,3.67,0,0,0,.16-1,1,1,0,0,0-.15-.59.56.56,0,0,0-.47-.2.87.87,0,0,0-.66.32,2.39,2.39,0,0,0-.44.89,4.25,4.25,0,0,0-.16,1m2.61-4.2,0,.18-1.35,1.16-.22-.21.95-1.13Z"/><path class="cls-10" d="M94.86,153.62a.76.76,0,0,0-.11.16.43.43,0,0,0-.07.16.9.9,0,0,0,0,.18.42.42,0,0,0,.19.39,1.05,1.05,0,0,0,.59.13,1.21,1.21,0,0,0,.6-.13,1.06,1.06,0,0,0,.4-.39,2.73,2.73,0,0,0,.29-.64,9.22,9.22,0,0,0,.25-1h0a3,3,0,0,1-.65.7,1,1,0,0,1-.64.22.72.72,0,0,1-.61-.29,1.39,1.39,0,0,1-.22-.85,3.06,3.06,0,0,1,.1-.79,2.6,2.6,0,0,1,.3-.7,2,2,0,0,1,.42-.52,1.54,1.54,0,0,1,1.05-.41,1.54,1.54,0,0,1,.43.06,1.18,1.18,0,0,1,.4.18l.33-.24.23.06-.37,1.69c0,.12,0,.26-.08.41l-.1.47a10.88,10.88,0,0,1-.27,1.17,2.23,2.23,0,0,1-.29.62,1.45,1.45,0,0,1-.36.38,1.86,1.86,0,0,1-.49.24,2.59,2.59,0,0,1-.66.08c-.91,0-1.36-.27-1.36-.79a.61.61,0,0,1,.12-.37,1.53,1.53,0,0,1,.39-.35Zm1-.68a.66.66,0,0,0,.37-.13,1.86,1.86,0,0,0,.39-.4,3.06,3.06,0,0,0,.32-.52,3.23,3.23,0,0,0,.2-.62,3.37,3.37,0,0,0,.08-.65.61.61,0,0,0-.12-.41.55.55,0,0,0-.4-.12.86.86,0,0,0-.28,0,.91.91,0,0,0-.28.17,1.27,1.27,0,0,0-.27.29,2.37,2.37,0,0,0-.23.45,3.31,3.31,0,0,0-.17.56,4.15,4.15,0,0,0,0,.59,1,1,0,0,0,.11.56.35.35,0,0,0,.33.19"/><path class="cls-10" d="M99.48,152.41a1.31,1.31,0,0,0,0,.27.71.71,0,0,0,0,.14.4.4,0,0,0,0,.17.2.2,0,0,0,.11.09,1,1,0,0,0,.25,0l0,.18H98.66l.55-2.43q0-.21.06-.33c0-.09,0-.16,0-.21a.35.35,0,0,0,0-.16.22.22,0,0,0-.1-.09,1.08,1.08,0,0,0-.25,0l0-.19.88,0H100Zm.89-4-.17.7h-.64l.17-.7Z"/><path class="cls-10" d="M103,150.73a1.56,1.56,0,0,0,0-.4.29.29,0,0,0-.12-.18.43.43,0,0,0-.24-.06.87.87,0,0,0-.65.29,2,2,0,0,0-.48.82,3.14,3.14,0,0,0-.18,1,2.46,2.46,0,0,0,0,.28.54.54,0,0,0,.1.23.4.4,0,0,0,.18.16.54.54,0,0,0,.27.05,1.26,1.26,0,0,0,.57-.12,2,2,0,0,0,.51-.39l.22.22a2.56,2.56,0,0,1-.69.55,1.64,1.64,0,0,1-.74.17,1,1,0,0,1-.79-.31,1.34,1.34,0,0,1-.27-.9,2.77,2.77,0,0,1,.15-.85,2.23,2.23,0,0,1,.42-.81,1.71,1.71,0,0,1,.65-.52,1.75,1.75,0,0,1,.79-.17,3.63,3.63,0,0,1,.5,0l.38.07-.17.82Z"/><path class="cls-10" d="M105,153.37a1.17,1.17,0,0,1-.86-.31,1.23,1.23,0,0,1-.31-.91,3.37,3.37,0,0,1,0-.5,2.79,2.79,0,0,1,.2-.67,1.91,1.91,0,0,1,1-1,1.82,1.82,0,0,1,.7-.13,1.34,1.34,0,0,1,.68.15,1,1,0,0,1,.39.43,1.61,1.61,0,0,1,.12.63,2.91,2.91,0,0,1-.09.69,3.09,3.09,0,0,1-.38.9,1.71,1.71,0,0,1-.63.57,2,2,0,0,1-.87.19m-.54-1.06a.86.86,0,0,0,.16.58.62.62,0,0,0,.5.19.8.8,0,0,0,.62-.31,2.24,2.24,0,0,0,.44-.89,4.11,4.11,0,0,0,.16-1,1,1,0,0,0-.16-.59.55.55,0,0,0-.47-.2.84.84,0,0,0-.65.32,2.24,2.24,0,0,0-.44.89,3.8,3.8,0,0,0-.16,1"/><path class="cls-10" d="M109.63,150.7a.82.82,0,0,0-.19-.47.65.65,0,0,0-.45-.14.78.78,0,0,0-.31.06.46.46,0,0,0-.21.18.47.47,0,0,0-.08.29.64.64,0,0,0,0,.24,1.12,1.12,0,0,0,.18.23,3.35,3.35,0,0,0,.36.27,1.69,1.69,0,0,1,.49.46.92.92,0,0,1,.14.5,1,1,0,0,1-.16.58,1,1,0,0,1-.44.35,1.62,1.62,0,0,1-.64.12,3.61,3.61,0,0,1-.59-.05,4.54,4.54,0,0,1-.53-.12l.16-.78h.29a.79.79,0,0,0,.18.5.65.65,0,0,0,.48.16.7.7,0,0,0,.5-.16.54.54,0,0,0,.18-.42.61.61,0,0,0-.05-.28.72.72,0,0,0-.17-.23,2.72,2.72,0,0,0-.33-.26,3.19,3.19,0,0,1-.37-.29,1,1,0,0,1-.21-.3.75.75,0,0,1-.08-.37.88.88,0,0,1,.15-.51.9.9,0,0,1,.42-.34,1.54,1.54,0,0,1,.63-.11,3.32,3.32,0,0,1,1,.15l-.16.74Z"/></g></g></svg>