<svg xmlns="http://www.w3.org/2000/svg" viewBox="0 0 80 80"><defs><style>.cls-1{fill:#f57c00;}</style></defs><title>Recurso 2</title><g id="Capa_2" data-name="Capa 2"><g id="Capa_1-2" data-name="Capa 1"><path class="cls-1" d="M80,40A40,40,0,1,1,40,0,40,40,0,0,1,80,40"/><path d="M54.16,19H26a3.84,3.84,0,0,0-3.84,3.84V56.16A3.84,3.84,0,0,0,26,60H54.16A3.84,3.84,0,0,0,58,56.16V22.84A3.84,3.84,0,0,0,54.16,19M40.06,57.44a2.57,2.57,0,1,1,2.57-2.56,2.56,2.56,0,0,1-2.57,2.56m14.1-8.65a1,1,0,0,1-1,1H26.93a1,1,0,0,1-1-1v-25a1,1,0,0,1,1-1H53.2a1,1,0,0,1,1,1Z"/></g></g></svg>