<svg xmlns="http://www.w3.org/2000/svg" viewBox="0 0 80 80"><defs><style>.cls-1{fill:#f57c00;}.cls-2{fill:#222;}</style></defs><title>Recurso 1</title><g id="Capa_2" data-name="Capa 2"><g id="Capa_1-2" data-name="Capa 1"><path class="cls-1" d="M80,40A40,40,0,1,1,40,0,40,40,0,0,1,80,40"/><path class="cls-2" d="M59.9,18.78H20.1a4,4,0,0,0-4,4V49.28a4,4,0,0,0,4,4H36l-1.33,4h-6a2,2,0,1,0,0,4H51.27a2,2,0,0,0,0-4h-6l-1.33-4H59.9a4,4,0,0,0,4-4V22.76a4,4,0,0,0-4-4M58.57,48H21.43V24.08H58.57Z"/></g></g></svg>