<svg xmlns="http://www.w3.org/2000/svg" viewBox="0 0 80 80"><defs><style>.cls-1{fill:#f57c00;}</style></defs><title>Recurso 3</title><g id="Capa_2" data-name="Capa 2"><g id="Capa_1-2" data-name="Capa 1"><path class="cls-1" d="M80,40A40,40,0,1,1,40,0,40,40,0,0,1,80,40"/><path d="M51.73,13.8H28.89A4.89,4.89,0,0,0,24,18.69V61.11A4.89,4.89,0,0,0,28.89,66H51.73a4.9,4.9,0,0,0,4.9-4.89V18.69a4.9,4.9,0,0,0-4.9-4.89M40.31,62.74a3.27,3.27,0,1,1,3.27-3.27,3.26,3.26,0,0,1-3.27,3.27m11.42-11A1.22,1.22,0,0,1,50.51,53H30.12a1.23,1.23,0,0,1-1.23-1.22V19.92a1.23,1.23,0,0,1,1.23-1.23H50.51a1.23,1.23,0,0,1,1.22,1.23Z"/></g></g></svg>