<svg xmlns="http://www.w3.org/2000/svg" viewBox="0 0 40.15 40.15"><defs><style>.cls-1{fill:#12afaf;}.cls-2{fill:#fff;}</style></defs><title>Recurso 3</title><g id="Capa_2" data-name="Capa 2"><g id="Capa_1-2" data-name="Capa 1"><path class="cls-1" d="M40.15,20.08A20.08,20.08,0,1,1,20.08,0,20.08,20.08,0,0,1,40.15,20.08"/><path class="cls-2" d="M17.82,21.48H14.66V17.75h3.16v-3a4.87,4.87,0,0,1,1.31-3.62,4.74,4.74,0,0,1,3.49-1.3,20.05,20.05,0,0,1,2.87.17v3.32h-2a1.91,1.91,0,0,0-1.52.49,2.15,2.15,0,0,0-.32,1.31v2.59h3.48l-.49,3.73h-3v9.39H17.82Z"/></g></g></svg>