<svg xmlns="http://www.w3.org/2000/svg" viewBox="0 0 60 60"><defs><style>.cls-1{fill:#12afaf;}.cls-2{fill:#fff;}</style></defs><title>Recurso 8</title><g id="Capa_2" data-name="Capa 2"><g id="Capa_1-2" data-name="Capa 1"><path class="cls-1" d="M60,30A30,30,0,1,1,30,0,30,30,0,0,1,60,30"/><path class="cls-2" d="M47.06,24.35a.89.89,0,0,1,.78,1.36,10.83,10.83,0,1,1,0-11.17.91.91,0,0,1-.78,1.38h-8l-3,4.21,3,4.22Zm-13,7L18.88,46.42a4.88,4.88,0,0,1-6.86,0,4.8,4.8,0,0,1,0-6.81L27.19,24.54a12.18,12.18,0,0,0,6.86,6.81M18.48,41.81a1.82,1.82,0,1,0-1.82,1.8,1.81,1.81,0,0,0,1.82-1.8"/></g></g></svg>