<svg xmlns="http://www.w3.org/2000/svg" viewBox="0 0 60 60"><defs><style>.cls-1{fill:#12afaf;}.cls-2{fill:#fff;}</style></defs><title>Recurso 9</title><g id="Capa_2" data-name="Capa 2"><g id="Capa_1-2" data-name="Capa 1"><path class="cls-1" d="M60,30A30,30,0,1,1,30,0,30,30,0,0,1,60,30"/><path class="cls-2" d="M40,22.21,35.4,18.29,41.65,15l6.67,3.77Zm-13.51-3,3.9-2.4,2.95,2.95L28.64,22.2ZM21,19.74l2.72-1.88,1.47,2.42L22,22.2Zm-2,7.52-.75-3,2.52-1.56,1.12,3Zm-1.81-7.13,2-1.55L20,20.63l-2.28,1.56Zm-2,6.24L14.87,24l1.9-1.32.52,2.45Zm-2.61,1.42,1.77-1.09.29,2.84-2,1Zm-2.3,3.82,1.64-.87,0,3.26-1.79.75Zm5,5.06-2.41.7-.14-4,2.14-.91Zm3.28-5.47-2.65,1.11-.45-3.48,2.34-1.22Zm2.06,9.7-3.55.5L16.41,36l3-.92ZM23.08,29l1.8,4.86L21,35l-1.17-4.61Zm7.3,19.64-6-.28-2.07-8.16,4.7-.74ZM23.15,24.79l3.59-1.91,2.39,3.91L24.8,28.6Zm3.49,8.08,5.22-1.59,4.5,7.38-6.8,1ZM31,25.58l5.73-2.45,5.58,5.57-7.54,2.23Z"/></g></g></svg>