<svg xmlns="http://www.w3.org/2000/svg" viewBox="0 0 60 60"><defs><style>.cls-1{fill:#12afaf;}.cls-2{fill:#fff;}</style></defs><title>Recurso 10</title><g id="Capa_2" data-name="Capa 2"><g id="Capa_1-2" data-name="Capa 1"><path class="cls-1" d="M60,30A30,30,0,1,1,30,0,30,30,0,0,1,60,30"/><path class="cls-2" d="M43.62,27.38H41.75V21.77a11.86,11.86,0,1,0-23.72,0v5.61H16.15a3.75,3.75,0,0,0-3.74,3.75v15a3.75,3.75,0,0,0,3.74,3.75H43.62a3.75,3.75,0,0,0,3.75-3.75v-15a3.75,3.75,0,0,0-3.75-3.75m-8.11,0H24.27V21.77a5.62,5.62,0,1,1,11.24,0Z"/></g></g></svg>