<svg xmlns="http://www.w3.org/2000/svg" viewBox="0 0 60 60"><defs><style>.cls-1{fill:#12afaf;}.cls-2{fill:#fff;}</style></defs><title>Recurso 7</title><g id="Capa_2" data-name="Capa 2"><g id="Capa_1-2" data-name="Capa 1"><path class="cls-1" d="M60,30A30,30,0,1,1,30,0,30,30,0,0,1,60,30"/><path class="cls-2" d="M43.12,34.28H17.26V17H43.12ZM44.2,12.73h-28A3.23,3.23,0,0,0,13,16v19.4a3.23,3.23,0,0,0,3.23,3.23h28a3.23,3.23,0,0,0,3.23-3.23V16a3.23,3.23,0,0,0-3.23-3.23m6.73,28H34.87a.4.4,0,0,0-.4.34,2.15,2.15,0,0,1-2.12,1.81H28a2.15,2.15,0,0,1-2.13-1.81.41.41,0,0,0-.4-.34H9.45a.8.8,0,0,0-.81.8V44a3.23,3.23,0,0,0,3.23,3.23H48.51A3.23,3.23,0,0,0,51.74,44V41.55a.8.8,0,0,0-.81-.8"/></g></g></svg>